<?xml version="1.0" encoding="UTF-8" standalone="no"?>
<!-- Created with Inkscape (http://www.inkscape.org/) -->

<svg
   xmlns:dc="http://purl.org/dc/elements/1.1/"
   xmlns:cc="http://creativecommons.org/ns#"
   xmlns:rdf="http://www.w3.org/1999/02/22-rdf-syntax-ns#"
   xmlns:svg="http://www.w3.org/2000/svg"
   xmlns="http://www.w3.org/2000/svg"
   xmlns:sodipodi="http://sodipodi.sourceforge.net/DTD/sodipodi-0.dtd"
   xmlns:inkscape="http://www.inkscape.org/namespaces/inkscape"
   id="svg2"
   version="1.1"
   inkscape:version="0.48.2 r9819"
   width="222.005"
   height="62.699688"
   xml:space="preserve"
   sodipodi:docname="nodejs-light.svg"><metadata
     id="metadata8"><rdf:RDF><cc:Work
         rdf:about=""><dc:format>image/svg+xml</dc:format><dc:type
           rdf:resource="http://purl.org/dc/dcmitype/StillImage" /><dc:title></dc:title></cc:Work></rdf:RDF></metadata><defs
     id="defs6"><clipPath
       clipPathUnits="userSpaceOnUse"
       id="clipPath16"><path
         d="m 0,0 186.385,0 0,50.16 L 0,50.16 0,0 z"
         id="path18"
         inkscape:connector-curvature="0" /></clipPath></defs><sodipodi:namedview
     pagecolor="#ffffff"
     bordercolor="#666666"
     borderopacity="1"
     objecttolerance="10"
     gridtolerance="10"
     guidetolerance="10"
     inkscape:pageopacity="0"
     inkscape:pageshadow="2"
     inkscape:window-width="640"
     inkscape:window-height="480"
     id="namedview4"
     showgrid="false"
     inkscape:zoom="1.5828877"
     inkscape:cx="116.875"
     inkscape:cy="31.874688"
     inkscape:window-x="1280"
     inkscape:window-y="501"
     inkscape:window-maximized="0"
     inkscape:current-layer="g10"
     fit-margin-top="0"
     fit-margin-left="0"
     fit-margin-right="0"
     fit-margin-bottom="0" /><g
     id="g10"
     inkscape:groupmode="layer"
     inkscape:label="nodejs-light"
     transform="matrix(1.25,0,0,-1.25,0,62.7)"><g
       id="g12"><g
         id="g14"
         clip-path="url(#clipPath16)"><path
           d="m 27.948,23.503 c 0,0.542 -0.285,1.041 -0.753,1.309 l -12.468,7.176 c -0.211,0.124 -0.448,0.188 -0.687,0.198 -0.021,0 -0.111,0 -0.129,0 -0.238,-0.01 -0.474,-0.074 -0.688,-0.198 L 0.754,24.812 C 0.289,24.544 0,24.045 0,23.503 L 0.027,4.181 c 0,-0.268 0.14,-0.518 0.376,-0.65 0.232,-0.139 0.518,-0.139 0.748,0 l 7.411,4.243 c 0.468,0.278 0.753,0.77 0.753,1.307 l 0,9.027 c 0,0.538 0.286,1.036 0.752,1.304 l 3.156,1.817 c 0.235,0.136 0.492,0.202 0.755,0.202 0.256,0 0.52,-0.066 0.749,-0.202 l 3.154,-1.817 c 0.467,-0.268 0.753,-0.766 0.753,-1.304 l 0,-9.027 c 0,-0.537 0.289,-1.032 0.755,-1.307 l 7.408,-4.243 c 0.232,-0.139 0.522,-0.139 0.753,0 0.229,0.132 0.374,0.382 0.374,0.65 l 0.024,19.322"
           style="fill:#404137;fill-opacity:1;fill-rule:evenodd;stroke:none"
           id="path20"
           inkscape:connector-curvature="0" /><path
           d="m 93.371,13.442 c 0,-0.134 -0.072,-0.258 -0.188,-0.325 L 88.9,10.648 c -0.116,-0.067 -0.26,-0.067 -0.376,0 l -4.283,2.469 c -0.117,0.067 -0.188,0.191 -0.188,0.325 l 0,4.946 c 0,0.134 0.071,0.258 0.188,0.326 l 4.282,2.473 c 0.117,0.068 0.261,0.068 0.377,0 l 4.283,-2.473 c 0.116,-0.068 0.188,-0.192 0.188,-0.326 l 0,-4.946 z m 1.157,36.623 c -0.233,0.13 -0.518,0.127 -0.748,-0.008 -0.23,-0.136 -0.372,-0.383 -0.372,-0.65 l 0,-19.135 c 0,-0.188 -0.1,-0.362 -0.263,-0.456 -0.163,-0.095 -0.364,-0.095 -0.527,0 l -3.123,1.799 c -0.466,0.268 -1.039,0.268 -1.505,-10e-4 L 75.516,24.416 c -0.466,-0.27 -0.753,-0.767 -0.753,-1.305 l 0,-14.4 c 0,-0.538 0.287,-1.035 0.753,-1.305 L 87.989,0.202 c 0.466,-0.269 1.04,-0.269 1.507,0 l 12.475,7.204 c 0.466,0.27 0.753,0.767 0.753,1.305 l 0,35.896 c 0,0.546 -0.296,1.05 -0.773,1.316 l -7.423,4.142"
           style="fill:#404137;fill-opacity:1;fill-rule:evenodd;stroke:none"
           id="path22"
           inkscape:connector-curvature="0" /></g></g><path
       d="m 139.155,18.517 c 0.464,0.27 0.749,0.766 0.749,1.302 l 0,3.49 c 0,0.537 -0.285,1.033 -0.75,1.303 l -12.393,7.196 c -0.467,0.271 -1.042,0.271 -1.51,0.002 l -12.469,-7.199 c -0.466,-0.269 -0.753,-0.766 -0.753,-1.304 l 0,-14.397 c 0,-0.541 0.291,-1.041 0.761,-1.308 l 12.392,-7.061 c 0.457,-0.261 1.017,-0.264 1.477,-0.009 l 7.495,4.166 c 0.238,0.133 0.386,0.382 0.387,0.654 0.002,0.271 -0.143,0.523 -0.378,0.658 l -12.548,7.202 c -0.235,0.134 -0.379,0.384 -0.379,0.653 l 0,4.512 c 0,0.269 0.144,0.518 0.377,0.652 l 3.906,2.252 c 0.232,0.134 0.519,0.134 0.752,0 l 3.907,-2.252 c 0.233,-0.134 0.377,-0.383 0.377,-0.652 l 0,-3.55 c 0,-0.269 0.144,-0.518 0.377,-0.653 0.234,-0.134 0.521,-0.133 0.754,0.002 l 7.469,4.341"
       style="fill:#404137;fill-opacity:1;fill-rule:evenodd;stroke:none"
       id="path24"
       inkscape:connector-curvature="0" /><path
       d="m 50.63,31.885 c 0.466,0.269 1.04,0.269 1.506,0 l 12.472,-7.197 c 0.466,-0.269 0.753,-0.766 0.753,-1.305 l 0,-14.405 c 0,-0.538 -0.287,-1.036 -0.753,-1.305 L 52.136,0.47 c -0.466,-0.269 -1.04,-0.269 -1.507,0 L 38.16,7.673 C 37.694,7.942 37.407,8.44 37.407,8.978 l 0,14.406 c 0,0.538 0.287,1.035 0.754,1.304 l 12.469,7.197"
       style="fill:#83cd29;fill-opacity:1;fill-rule:evenodd;stroke:none"
       id="path26"
       inkscape:connector-curvature="0" /><path
       d="m 163.371,0.264 c -0.43,0 -0.857,0.113 -1.233,0.33 l -3.927,2.323 c -0.586,0.329 -0.3,0.445 -0.107,0.512 0.783,0.272 0.941,0.334 1.776,0.808 0.087,0.049 0.202,0.03 0.292,-0.023 l 3.016,-1.791 c 0.11,-0.06 0.264,-0.06 0.365,0 l 11.76,6.788 c 0.11,0.063 0.18,0.189 0.18,0.319 l 0,13.572 c 0,0.133 -0.07,0.257 -0.182,0.324 l -11.756,6.782 c -0.109,0.064 -0.253,0.064 -0.363,0 l -11.753,-6.784 c -0.114,-0.065 -0.186,-0.193 -0.186,-0.322 l 0,-13.572 c 0,-0.13 0.072,-0.253 0.185,-0.315 l 3.222,-1.861 c 1.748,-0.874 2.819,0.155 2.819,1.19 l 0,13.4 c 0,0.189 0.152,0.339 0.341,0.339 l 1.492,0 c 0.186,0 0.34,-0.15 0.34,-0.339 l 0,-13.4 c 0,-2.333 -1.27,-3.671 -3.482,-3.671 -0.68,0 -1.215,0 -2.709,0.736 l -3.084,1.775 c -0.762,0.441 -1.233,1.264 -1.233,2.146 l 0,13.572 c 0,0.882 0.471,1.705 1.233,2.144 l 11.761,6.796 c 0.744,0.42 1.733,0.42 2.471,0 l 11.76,-6.796 c 0.762,-0.441 1.235,-1.262 1.235,-2.144 l 0,-13.572 c 0,-0.882 -0.473,-1.702 -1.235,-2.146 l -11.76,-6.79 c -0.376,-0.217 -0.802,-0.33 -1.238,-0.33"
       style="fill:#83cd29;fill-opacity:1;fill-rule:nonzero;stroke:none"
       id="path28"
       inkscape:connector-curvature="0" /><path
       d="m 167.004,9.615 c -5.147,0 -6.225,2.362 -6.225,4.344 0,0.188 0.152,0.338 0.34,0.338 l 1.521,0 c 0.17,0 0.311,-0.122 0.338,-0.288 0.229,-1.547 0.914,-2.329 4.026,-2.329 2.477,0 3.532,0.561 3.532,1.875 0,0.758 -0.299,1.321 -4.149,1.697 -3.218,0.319 -5.208,1.03 -5.208,3.604 0,2.373 2,3.788 5.353,3.788 3.768,0 5.632,-1.307 5.868,-4.113 0.009,-0.097 -0.025,-0.19 -0.089,-0.262 -0.065,-0.067 -0.155,-0.108 -0.249,-0.108 l -1.527,0 c -0.158,0 -0.298,0.112 -0.33,0.265 -0.366,1.629 -1.257,2.15 -3.673,2.15 -2.705,0 -3.019,-0.943 -3.019,-1.649 0,-0.855 0.371,-1.104 4.023,-1.588 3.614,-0.477 5.331,-1.154 5.331,-3.694 0,-2.562 -2.137,-4.03 -5.863,-4.03"
       style="fill:#83cd29;fill-opacity:1;fill-rule:nonzero;stroke:none"
       id="path30"
       inkscape:connector-curvature="0" /><path
       d="m 125.822,19.191 c 0.09,0.052 0.2,0.052 0.289,0 l 2.394,-1.38 c 0.089,-0.052 0.144,-0.147 0.144,-0.251 l 0,-2.764 c 0,-0.103 -0.055,-0.198 -0.144,-0.25 l -2.394,-1.381 c -0.089,-0.052 -0.199,-0.052 -0.289,0 l -2.391,1.381 c -0.09,0.052 -0.145,0.147 -0.145,0.25 l 0,2.764 c 0,0.104 0.055,0.199 0.145,0.251 l 2.391,1.38"
       style="fill:#83cd29;fill-opacity:1;fill-rule:evenodd;stroke:none"
       id="path36"
       inkscape:connector-curvature="0" /></g></svg>