<?xml version="1.0" encoding="UTF-8"?>
<!DOCTYPE svg PUBLIC "-//W3C//DTD SVG 1.1//EN" "http://www.w3.org/Graphics/SVG/1.1/DTD/svg11.dtd">
<svg width="159mm" height="95mm" viewBox="0 0 15900 9500" version="1.1" baseProfile="tiny" xmlns="http://www.w3.org/2000/svg" stroke-width="28.222" stroke-linejoin="round" xml:space="preserve">
 <path fill="none" stroke="rgb(179,179,179)" stroke-linejoin="round" d="M 9322,7746 L 3273,7746 3273,1454 15372,1454 15372,7746 9322,7746 Z"/>
 <path fill="none" stroke="rgb(179,179,179)" stroke-linejoin="round" d="M 15372,7745 L 3273,7745"/>
 <path fill="none" stroke="rgb(179,179,179)" stroke-linejoin="round" d="M 15372,6846 L 3273,6846"/>
 <path fill="none" stroke="rgb(179,179,179)" stroke-linejoin="round" d="M 15372,5947 L 3273,5947"/>
 <path fill="none" stroke="rgb(179,179,179)" stroke-linejoin="round" d="M 15372,5048 L 3273,5048"/>
 <path fill="none" stroke="rgb(179,179,179)" stroke-linejoin="round" d="M 15372,4150 L 3273,4150"/>
 <path fill="none" stroke="rgb(179,179,179)" stroke-linejoin="round" d="M 15372,3251 L 3273,3251"/>
 <path fill="none" stroke="rgb(179,179,179)" stroke-linejoin="round" d="M 15372,2352 L 3273,2352"/>
 <path fill="none" stroke="rgb(179,179,179)" stroke-linejoin="round" d="M 15372,1453 L 3273,1453"/>
 <path fill="none" stroke="rgb(179,179,179)" stroke-linejoin="round" d="M 3273,7895 L 3273,7745"/>
 <path fill="none" stroke="rgb(179,179,179)" stroke-linejoin="round" d="M 3273,7895 L 3273,7745"/>
 <path fill="none" stroke="rgb(179,179,179)" stroke-linejoin="round" d="M 5001,7895 L 5001,7745"/>
 <path fill="none" stroke="rgb(179,179,179)" stroke-linejoin="round" d="M 5001,7895 L 5001,7745"/>
 <path fill="none" stroke="rgb(179,179,179)" stroke-linejoin="round" d="M 6730,7895 L 6730,7745"/>
 <path fill="none" stroke="rgb(179,179,179)" stroke-linejoin="round" d="M 6730,7895 L 6730,7745"/>
 <path fill="none" stroke="rgb(179,179,179)" stroke-linejoin="round" d="M 8457,7895 L 8457,7745"/>
 <path fill="none" stroke="rgb(179,179,179)" stroke-linejoin="round" d="M 8457,7895 L 8457,7745"/>
 <path fill="none" stroke="rgb(179,179,179)" stroke-linejoin="round" d="M 10186,7895 L 10186,7745"/>
 <path fill="none" stroke="rgb(179,179,179)" stroke-linejoin="round" d="M 10186,7895 L 10186,7745"/>
 <path fill="none" stroke="rgb(179,179,179)" stroke-linejoin="round" d="M 11914,7895 L 11914,7745"/>
 <path fill="none" stroke="rgb(179,179,179)" stroke-linejoin="round" d="M 11914,7895 L 11914,7745"/>
 <path fill="none" stroke="rgb(179,179,179)" stroke-linejoin="round" d="M 13643,7895 L 13643,7745"/>
 <path fill="none" stroke="rgb(179,179,179)" stroke-linejoin="round" d="M 13643,7895 L 13643,7745"/>
 <path fill="none" stroke="rgb(179,179,179)" stroke-linejoin="round" d="M 15372,7895 L 15372,7745"/>
 <path fill="none" stroke="rgb(179,179,179)" stroke-linejoin="round" d="M 15372,7895 L 15372,7745"/>
 <path fill="none" stroke="rgb(179,179,179)" stroke-linejoin="round" d="M 3273,7745 L 15372,7745"/>
 <path fill="none" stroke="rgb(179,179,179)" stroke-linejoin="round" d="M 3123,7745 L 3273,7745"/>
 <path fill="none" stroke="rgb(179,179,179)" stroke-linejoin="round" d="M 3123,7745 L 3273,7745"/>
 <path fill="none" stroke="rgb(179,179,179)" stroke-linejoin="round" d="M 3123,6846 L 3273,6846"/>
 <path fill="none" stroke="rgb(179,179,179)" stroke-linejoin="round" d="M 3123,6846 L 3273,6846"/>
 <path fill="none" stroke="rgb(179,179,179)" stroke-linejoin="round" d="M 3123,5947 L 3273,5947"/>
 <path fill="none" stroke="rgb(179,179,179)" stroke-linejoin="round" d="M 3123,5947 L 3273,5947"/>
 <path fill="none" stroke="rgb(179,179,179)" stroke-linejoin="round" d="M 3123,5048 L 3273,5048"/>
 <path fill="none" stroke="rgb(179,179,179)" stroke-linejoin="round" d="M 3123,5048 L 3273,5048"/>
 <path fill="none" stroke="rgb(179,179,179)" stroke-linejoin="round" d="M 3123,4150 L 3273,4150"/>
 <path fill="none" stroke="rgb(179,179,179)" stroke-linejoin="round" d="M 3123,4150 L 3273,4150"/>
 <path fill="none" stroke="rgb(179,179,179)" stroke-linejoin="round" d="M 3123,3251 L 3273,3251"/>
 <path fill="none" stroke="rgb(179,179,179)" stroke-linejoin="round" d="M 3123,3251 L 3273,3251"/>
 <path fill="none" stroke="rgb(179,179,179)" stroke-linejoin="round" d="M 3123,2352 L 3273,2352"/>
 <path fill="none" stroke="rgb(179,179,179)" stroke-linejoin="round" d="M 3123,2352 L 3273,2352"/>
 <path fill="none" stroke="rgb(179,179,179)" stroke-linejoin="round" d="M 3123,1453 L 3273,1453"/>
 <path fill="none" stroke="rgb(179,179,179)" stroke-linejoin="round" d="M 3123,1453 L 3273,1453"/>
 <path fill="none" stroke="rgb(179,179,179)" stroke-linejoin="round" d="M 3273,7745 L 3273,1453"/>
 <path fill="none" stroke="rgb(0,69,134)" stroke-width="80" stroke-linejoin="round" d="M 3273,7541 L 5001,7321 6730,6927 8457,6139 10186,4591 11914,4288 13643,4535 15372,4646"/>
 <path fill="rgb(0,69,134)" stroke="none" d="M 3148,7416 L 3148,7666 3398,7666 3398,7416 3148,7416 Z"/>
 <path fill="none" stroke="rgb(0,69,134)" stroke-linejoin="round" d="M 3148,7416 L 3148,7666 3398,7666 3398,7416 3148,7416 Z"/>
 <path fill="rgb(0,69,134)" stroke="none" d="M 4876,7196 L 4876,7446 5126,7446 5126,7196 4876,7196 Z"/>
 <path fill="none" stroke="rgb(0,69,134)" stroke-linejoin="round" d="M 4876,7196 L 4876,7446 5126,7446 5126,7196 4876,7196 Z"/>
 <path fill="rgb(0,69,134)" stroke="none" d="M 6605,6802 L 6605,7052 6855,7052 6855,6802 6605,6802 Z"/>
 <path fill="none" stroke="rgb(0,69,134)" stroke-linejoin="round" d="M 6605,6802 L 6605,7052 6855,7052 6855,6802 6605,6802 Z"/>
 <path fill="rgb(0,69,134)" stroke="none" d="M 8332,6014 L 8332,6264 8582,6264 8582,6014 8332,6014 Z"/>
 <path fill="none" stroke="rgb(0,69,134)" stroke-linejoin="round" d="M 8332,6014 L 8332,6264 8582,6264 8582,6014 8332,6014 Z"/>
 <path fill="rgb(0,69,134)" stroke="none" d="M 10061,4466 L 10061,4716 10311,4716 10311,4466 10061,4466 Z"/>
 <path fill="none" stroke="rgb(0,69,134)" stroke-linejoin="round" d="M 10061,4466 L 10061,4716 10311,4716 10311,4466 10061,4466 Z"/>
 <path fill="rgb(0,69,134)" stroke="none" d="M 11789,4163 L 11789,4413 12039,4413 12039,4163 11789,4163 Z"/>
 <path fill="none" stroke="rgb(0,69,134)" stroke-linejoin="round" d="M 11789,4163 L 11789,4413 12039,4413 12039,4163 11789,4163 Z"/>
 <path fill="rgb(0,69,134)" stroke="none" d="M 13518,4410 L 13518,4660 13768,4660 13768,4410 13518,4410 Z"/>
 <path fill="none" stroke="rgb(0,69,134)" stroke-linejoin="round" d="M 13518,4410 L 13518,4660 13768,4660 13768,4410 13518,4410 Z"/>
 <path fill="rgb(0,69,134)" stroke="none" d="M 15247,4521 L 15247,4770 15497,4770 15497,4521 15247,4521 Z"/>
 <path fill="none" stroke="rgb(0,69,134)" stroke-linejoin="round" d="M 15247,4521 L 15247,4770 15497,4770 15497,4521 15247,4521 Z"/>
 <path fill="none" stroke="rgb(255,66,14)" stroke-width="80" stroke-linejoin="round" d="M 3273,7382 L 5001,7031 6730,6361 8457,5020 10186,2457 11914,2127 13643,2457 15372,2608"/>
 <path fill="rgb(255,66,14)" stroke="none" d="M 3148,7382 L 3273,7507 3398,7382 3273,7257 3148,7382 Z"/>
 <path fill="none" stroke="rgb(255,66,14)" stroke-linejoin="round" d="M 3148,7382 L 3273,7507 3398,7382 3273,7257 3148,7382 Z"/>
 <path fill="rgb(255,66,14)" stroke="none" d="M 4876,7031 L 5001,7156 5126,7031 5001,6906 4876,7031 Z"/>
 <path fill="none" stroke="rgb(255,66,14)" stroke-linejoin="round" d="M 4876,7031 L 5001,7156 5126,7031 5001,6906 4876,7031 Z"/>
 <path fill="rgb(255,66,14)" stroke="none" d="M 6605,6361 L 6730,6486 6855,6361 6730,6236 6605,6361 Z"/>
 <path fill="none" stroke="rgb(255,66,14)" stroke-linejoin="round" d="M 6605,6361 L 6730,6486 6855,6361 6730,6236 6605,6361 Z"/>
 <path fill="rgb(255,66,14)" stroke="none" d="M 8332,5020 L 8457,5145 8582,5020 8457,4895 8332,5020 Z"/>
 <path fill="none" stroke="rgb(255,66,14)" stroke-linejoin="round" d="M 8332,5020 L 8457,5145 8582,5020 8457,4895 8332,5020 Z"/>
 <path fill="rgb(255,66,14)" stroke="none" d="M 10061,2457 L 10186,2582 10311,2457 10186,2332 10061,2457 Z"/>
 <path fill="none" stroke="rgb(255,66,14)" stroke-linejoin="round" d="M 10061,2457 L 10186,2582 10311,2457 10186,2332 10061,2457 Z"/>
 <path fill="rgb(255,66,14)" stroke="none" d="M 11789,2127 L 11914,2252 12039,2127 11914,2002 11789,2127 Z"/>
 <path fill="none" stroke="rgb(255,66,14)" stroke-linejoin="round" d="M 11789,2127 L 11914,2252 12039,2127 11914,2002 11789,2127 Z"/>
 <path fill="rgb(255,66,14)" stroke="none" d="M 13518,2457 L 13643,2582 13768,2457 13643,2332 13518,2457 Z"/>
 <path fill="none" stroke="rgb(255,66,14)" stroke-linejoin="round" d="M 13518,2457 L 13643,2582 13768,2457 13643,2332 13518,2457 Z"/>
 <path fill="rgb(255,66,14)" stroke="none" d="M 15247,2608 L 15372,2733 15497,2608 15372,2483 15247,2608 Z"/>
 <path fill="none" stroke="rgb(255,66,14)" stroke-linejoin="round" d="M 15247,2608 L 15372,2733 15497,2608 15372,2483 15247,2608 Z"/>
 <path fill="none" stroke="rgb(255,211,32)" stroke-width="80" stroke-linejoin="round" d="M 3273,7617 L 5001,7489 6730,7238 8457,6767 10186,5811 11914,5654 13643,5811 15372,5910"/>
 <path fill="rgb(255,211,32)" stroke="none" d="M 3148,7492 L 3273,7742 3398,7492 3148,7492 Z"/>
 <path fill="none" stroke="rgb(255,211,32)" stroke-linejoin="round" d="M 3148,7492 L 3273,7742 3398,7492 3148,7492 Z"/>
 <path fill="rgb(255,211,32)" stroke="none" d="M 4876,7364 L 5001,7614 5126,7364 4876,7364 Z"/>
 <path fill="none" stroke="rgb(255,211,32)" stroke-linejoin="round" d="M 4876,7364 L 5001,7614 5126,7364 4876,7364 Z"/>
 <path fill="rgb(255,211,32)" stroke="none" d="M 6605,7113 L 6730,7363 6855,7113 6605,7113 Z"/>
 <path fill="none" stroke="rgb(255,211,32)" stroke-linejoin="round" d="M 6605,7113 L 6730,7363 6855,7113 6605,7113 Z"/>
 <path fill="rgb(255,211,32)" stroke="none" d="M 8332,6642 L 8457,6892 8582,6642 8332,6642 Z"/>
 <path fill="none" stroke="rgb(255,211,32)" stroke-linejoin="round" d="M 8332,6642 L 8457,6892 8582,6642 8332,6642 Z"/>
 <path fill="rgb(255,211,32)" stroke="none" d="M 10061,5686 L 10186,5936 10311,5686 10061,5686 Z"/>
 <path fill="none" stroke="rgb(255,211,32)" stroke-linejoin="round" d="M 10061,5686 L 10186,5936 10311,5686 10061,5686 Z"/>
 <path fill="rgb(255,211,32)" stroke="none" d="M 11789,5529 L 11914,5779 12039,5529 11789,5529 Z"/>
 <path fill="none" stroke="rgb(255,211,32)" stroke-linejoin="round" d="M 11789,5529 L 11914,5779 12039,5529 11789,5529 Z"/>
 <path fill="rgb(255,211,32)" stroke="none" d="M 13518,5686 L 13643,5936 13768,5686 13518,5686 Z"/>
 <path fill="none" stroke="rgb(255,211,32)" stroke-linejoin="round" d="M 13518,5686 L 13643,5936 13768,5686 13518,5686 Z"/>
 <path fill="rgb(255,211,32)" stroke="none" d="M 15247,5785 L 15372,6035 15497,5785 15247,5785 Z"/>
 <path fill="none" stroke="rgb(255,211,32)" stroke-linejoin="round" d="M 15247,5785 L 15372,6035 15497,5785 15247,5785 Z"/>
 <path fill="none" stroke="rgb(87,157,28)" stroke-width="80" stroke-linejoin="round" d="M 3273,7671 L 5001,7605 6730,7455 8457,7172 10186,6621 11914,6521 13643,6569 15372,6592"/>
 <path fill="rgb(87,157,28)" stroke="none" d="M 3148,7796 L 3398,7796 3273,7546 3148,7796 Z"/>
 <path fill="none" stroke="rgb(87,157,28)" stroke-linejoin="round" d="M 3148,7796 L 3398,7796 3273,7546 3148,7796 Z"/>
 <path fill="rgb(87,157,28)" stroke="none" d="M 4876,7730 L 5126,7730 5001,7480 4876,7730 Z"/>
 <path fill="none" stroke="rgb(87,157,28)" stroke-linejoin="round" d="M 4876,7730 L 5126,7730 5001,7480 4876,7730 Z"/>
 <path fill="rgb(87,157,28)" stroke="none" d="M 6605,7580 L 6855,7580 6730,7330 6605,7580 Z"/>
 <path fill="none" stroke="rgb(87,157,28)" stroke-linejoin="round" d="M 6605,7580 L 6855,7580 6730,7330 6605,7580 Z"/>
 <path fill="rgb(87,157,28)" stroke="none" d="M 8332,7297 L 8582,7297 8457,7047 8332,7297 Z"/>
 <path fill="none" stroke="rgb(87,157,28)" stroke-linejoin="round" d="M 8332,7297 L 8582,7297 8457,7047 8332,7297 Z"/>
 <path fill="rgb(87,157,28)" stroke="none" d="M 10061,6746 L 10311,6746 10186,6496 10061,6746 Z"/>
 <path fill="none" stroke="rgb(87,157,28)" stroke-linejoin="round" d="M 10061,6746 L 10311,6746 10186,6496 10061,6746 Z"/>
 <path fill="rgb(87,157,28)" stroke="none" d="M 11789,6646 L 12039,6646 11914,6396 11789,6646 Z"/>
 <path fill="none" stroke="rgb(87,157,28)" stroke-linejoin="round" d="M 11789,6646 L 12039,6646 11914,6396 11789,6646 Z"/>
 <path fill="rgb(87,157,28)" stroke="none" d="M 13518,6694 L 13768,6694 13643,6444 13518,6694 Z"/>
 <path fill="none" stroke="rgb(87,157,28)" stroke-linejoin="round" d="M 13518,6694 L 13768,6694 13643,6444 13518,6694 Z"/>
 <path fill="rgb(87,157,28)" stroke="none" d="M 15247,6717 L 15497,6717 15372,6467 15247,6717 Z"/>
 <path fill="none" stroke="rgb(87,157,28)" stroke-linejoin="round" d="M 15247,6717 L 15497,6717 15372,6467 15247,6717 Z"/>
 <path fill="none" stroke="rgb(126,0,33)" stroke-width="80" stroke-linejoin="round" d="M 3273,7652 L 5001,7557 6730,7373 8457,7017 10186,6318 11914,6195 13643,6271 15372,6351"/>
 <path fill="rgb(126,0,33)" stroke="none" d="M 3148,7527 L 3148,7777 3398,7652 3148,7527 Z"/>
 <path fill="none" stroke="rgb(126,0,33)" stroke-linejoin="round" d="M 3148,7527 L 3148,7777 3398,7652 3148,7527 Z"/>
 <path fill="rgb(126,0,33)" stroke="none" d="M 4876,7432 L 4876,7682 5126,7557 4876,7432 Z"/>
 <path fill="none" stroke="rgb(126,0,33)" stroke-linejoin="round" d="M 4876,7432 L 4876,7682 5126,7557 4876,7432 Z"/>
 <path fill="rgb(126,0,33)" stroke="none" d="M 6605,7248 L 6605,7498 6855,7373 6605,7248 Z"/>
 <path fill="none" stroke="rgb(126,0,33)" stroke-linejoin="round" d="M 6605,7248 L 6605,7498 6855,7373 6605,7248 Z"/>
 <path fill="rgb(126,0,33)" stroke="none" d="M 8332,6892 L 8332,7142 8582,7017 8332,6892 Z"/>
 <path fill="none" stroke="rgb(126,0,33)" stroke-linejoin="round" d="M 8332,6892 L 8332,7142 8582,7017 8332,6892 Z"/>
 <path fill="rgb(126,0,33)" stroke="none" d="M 10061,6193 L 10061,6443 10311,6318 10061,6193 Z"/>
 <path fill="none" stroke="rgb(126,0,33)" stroke-linejoin="round" d="M 10061,6193 L 10061,6443 10311,6318 10061,6193 Z"/>
 <path fill="rgb(126,0,33)" stroke="none" d="M 11789,6070 L 11789,6320 12039,6195 11789,6070 Z"/>
 <path fill="none" stroke="rgb(126,0,33)" stroke-linejoin="round" d="M 11789,6070 L 11789,6320 12039,6195 11789,6070 Z"/>
 <path fill="rgb(126,0,33)" stroke="none" d="M 13518,6146 L 13518,6396 13768,6271 13518,6146 Z"/>
 <path fill="none" stroke="rgb(126,0,33)" stroke-linejoin="round" d="M 13518,6146 L 13518,6396 13768,6271 13518,6146 Z"/>
 <path fill="rgb(126,0,33)" stroke="none" d="M 15247,6226 L 15247,6476 15497,6351 15247,6226 Z"/>
 <path fill="none" stroke="rgb(126,0,33)" stroke-linejoin="round" d="M 15247,6226 L 15247,6476 15497,6351 15247,6226 Z"/>
 <text class="TextShape"><tspan class="TextParagraph" font-family="Liberation Sans" font-size="353px" font-weight="400"><tspan class="TextPosition" x="3180" y="8313"/><tspan class="TextPosition" x="3180" y="8313"><tspan fill="rgb(0,0,0)" stroke="none">1</tspan></tspan></tspan></text>
 <text class="TextShape"><tspan class="TextParagraph" font-family="Liberation Sans" font-size="353px" font-weight="400"><tspan class="TextPosition" x="4908" y="8313"/><tspan class="TextPosition" x="4908" y="8313"><tspan fill="rgb(0,0,0)" stroke="none">2</tspan></tspan></tspan></text>
 <text class="TextShape"><tspan class="TextParagraph" font-family="Liberation Sans" font-size="353px" font-weight="400"><tspan class="TextPosition" x="6637" y="8313"/><tspan class="TextPosition" x="6637" y="8313"><tspan fill="rgb(0,0,0)" stroke="none">4</tspan></tspan></tspan></text>
 <text class="TextShape"><tspan class="TextParagraph" font-family="Liberation Sans" font-size="353px" font-weight="400"><tspan class="TextPosition" x="8365" y="8313"/><tspan class="TextPosition" x="8365" y="8313"><tspan fill="rgb(0,0,0)" stroke="none">8</tspan></tspan></tspan></text>
 <text class="TextShape"><tspan class="TextParagraph" font-family="Liberation Sans" font-size="353px" font-weight="400"><tspan class="TextPosition" x="10002" y="8313"/><tspan class="TextPosition" x="10002" y="8313"><tspan fill="rgb(0,0,0)" stroke="none">16</tspan></tspan></tspan></text>
 <text class="TextShape"><tspan class="TextParagraph" font-family="Liberation Sans" font-size="353px" font-weight="400"><tspan class="TextPosition" x="11730" y="8313"/><tspan class="TextPosition" x="11730" y="8313"><tspan fill="rgb(0,0,0)" stroke="none">24</tspan></tspan></tspan></text>
 <text class="TextShape"><tspan class="TextParagraph" font-family="Liberation Sans" font-size="353px" font-weight="400"><tspan class="TextPosition" x="13459" y="8313"/><tspan class="TextPosition" x="13459" y="8313"><tspan fill="rgb(0,0,0)" stroke="none">32</tspan></tspan></tspan></text>
 <text class="TextShape"><tspan class="TextParagraph" font-family="Liberation Sans" font-size="353px" font-weight="400"><tspan class="TextPosition" x="15188" y="8313"/><tspan class="TextPosition" x="15188" y="8313"><tspan fill="rgb(0,0,0)" stroke="none">36</tspan></tspan></tspan></text>
 <text class="TextShape"><tspan class="TextParagraph" font-family="Liberation Sans" font-size="353px" font-weight="400"><tspan class="TextPosition" x="2838" y="7879"/><tspan class="TextPosition" x="2838" y="7879"><tspan fill="rgb(0,0,0)" stroke="none">0</tspan></tspan></tspan></text>
 <text class="TextShape"><tspan class="TextParagraph" font-family="Liberation Sans" font-size="353px" font-weight="400"><tspan class="TextPosition" x="1462" y="6980"/><tspan class="TextPosition" x="1462" y="6980"><tspan fill="rgb(0,0,0)" stroke="none">5,000,000</tspan></tspan></tspan></text>
 <text class="TextShape"><tspan class="TextParagraph" font-family="Liberation Sans" font-size="353px" font-weight="400"><tspan class="TextPosition" x="1277" y="6081"/><tspan class="TextPosition" x="1277" y="6081"><tspan fill="rgb(0,0,0)" stroke="none">10,000,000</tspan></tspan></tspan></text>
 <text class="TextShape"><tspan class="TextParagraph" font-family="Liberation Sans" font-size="353px" font-weight="400"><tspan class="TextPosition" x="1277" y="5182"/><tspan class="TextPosition" x="1277" y="5182"><tspan fill="rgb(0,0,0)" stroke="none">15,000,000</tspan></tspan></tspan></text>
 <text class="TextShape"><tspan class="TextParagraph" font-family="Liberation Sans" font-size="353px" font-weight="400"><tspan class="TextPosition" x="1277" y="4283"/><tspan class="TextPosition" x="1277" y="4283"><tspan fill="rgb(0,0,0)" stroke="none">20,000,000</tspan></tspan></tspan></text>
 <text class="TextShape"><tspan class="TextParagraph" font-family="Liberation Sans" font-size="353px" font-weight="400"><tspan class="TextPosition" x="1277" y="3384"/><tspan class="TextPosition" x="1277" y="3384"><tspan fill="rgb(0,0,0)" stroke="none">25,000,000</tspan></tspan></tspan></text>
 <text class="TextShape"><tspan class="TextParagraph" font-family="Liberation Sans" font-size="353px" font-weight="400"><tspan class="TextPosition" x="1277" y="2485"/><tspan class="TextPosition" x="1277" y="2485"><tspan fill="rgb(0,0,0)" stroke="none">30,000,000</tspan></tspan></tspan></text>
 <text class="TextShape"><tspan class="TextParagraph" font-family="Liberation Sans" font-size="353px" font-weight="400"><tspan class="TextPosition" x="1277" y="1586"/><tspan class="TextPosition" x="1277" y="1586"><tspan fill="rgb(0,0,0)" stroke="none">35,000,000</tspan></tspan></tspan></text>
 <text class="TextShape"><tspan class="TextParagraph" font-family="Arial" font-size="459px" font-weight="400"><tspan class="TextPosition" x="5609" y="860"/><tspan class="TextPosition" x="5609" y="860"><tspan fill="rgb(0,0,0)" stroke="none">STREAMS Benchmark</tspan></tspan></tspan></text>
 <path fill="none" stroke="rgb(0,69,134)" stroke-width="80" stroke-linejoin="round" d="M 4001,2120 L 4801,2120"/>
 <path fill="rgb(0,69,134)" stroke="none" d="M 4295,2015 L 4295,2226 4506,2226 4506,2015 4295,2015 Z"/>
 <path fill="none" stroke="rgb(0,69,134)" stroke-linejoin="round" d="M 4295,2015 L 4295,2226 4506,2226 4506,2015 4295,2015 Z"/>
 <path fill="none" stroke="rgb(255,66,14)" stroke-width="80" stroke-linejoin="round" d="M 4001,2972 L 4801,2972"/>
 <path fill="rgb(255,66,14)" stroke="none" d="M 4295,2972 L 4401,3078 4506,2972 4401,2867 4295,2972 Z"/>
 <path fill="none" stroke="rgb(255,66,14)" stroke-linejoin="round" d="M 4295,2972 L 4401,3078 4506,2972 4401,2867 4295,2972 Z"/>
 <path fill="none" stroke="rgb(255,211,32)" stroke-width="80" stroke-linejoin="round" d="M 4001,3824 L 4801,3824"/>
 <path fill="rgb(255,211,32)" stroke="none" d="M 4295,3719 L 4401,3930 4506,3719 4295,3719 Z"/>
 <path fill="none" stroke="rgb(255,211,32)" stroke-linejoin="round" d="M 4295,3719 L 4401,3930 4506,3719 4295,3719 Z"/>
 <path fill="none" stroke="rgb(87,157,28)" stroke-width="80" stroke-linejoin="round" d="M 4001,4676 L 4801,4676"/>
 <path fill="rgb(87,157,28)" stroke="none" d="M 4295,4781 L 4506,4781 4401,4571 4295,4781 Z"/>
 <path fill="none" stroke="rgb(87,157,28)" stroke-linejoin="round" d="M 4295,4781 L 4506,4781 4401,4571 4295,4781 Z"/>
 <path fill="none" stroke="rgb(126,0,33)" stroke-width="80" stroke-linejoin="round" d="M 4001,5527 L 4801,5527"/>
 <path fill="rgb(126,0,33)" stroke="none" d="M 4295,5422 L 4295,5633 4506,5527 4295,5422 Z"/>
 <path fill="none" stroke="rgb(126,0,33)" stroke-linejoin="round" d="M 4295,5422 L 4295,5633 4506,5527 4295,5422 Z"/>
 <text class="TextShape"><tspan class="TextParagraph" font-family="Arial" font-size="353px" font-weight="400"><tspan class="TextPosition" x="4901" y="2253"/><tspan class="TextPosition" x="4901" y="2253"><tspan fill="rgb(0,0,0)" stroke="none">writeEF</tspan></tspan></tspan></text>
 <text class="TextShape"><tspan class="TextParagraph" font-family="Arial" font-size="353px" font-weight="400"><tspan class="TextPosition" x="4901" y="3105"/><tspan class="TextPosition" x="4901" y="3105"><tspan fill="rgb(0,0,0)" stroke="none">readFE</tspan></tspan></tspan></text>
 <text class="TextShape"><tspan class="TextParagraph" font-family="Arial" font-size="353px" font-weight="400"><tspan class="TextPosition" x="4901" y="3957"/><tspan class="TextPosition" x="4901" y="3957"><tspan fill="rgb(0,0,0)" stroke="none">Copy</tspan></tspan></tspan></text>
 <text class="TextShape"><tspan class="TextParagraph" font-family="Arial" font-size="353px" font-weight="400"><tspan class="TextPosition" x="4901" y="4808"/><tspan class="TextPosition" x="4901" y="4808"><tspan fill="rgb(0,0,0)" stroke="none">c+=a*b</tspan></tspan></tspan></text>
 <text class="TextShape"><tspan class="TextParagraph" font-family="Arial" font-size="353px" font-weight="400"><tspan class="TextPosition" x="4901" y="5660"/><tspan class="TextPosition" x="4901" y="5660"><tspan fill="rgb(0,0,0)" stroke="none">c=a*b</tspan></tspan></tspan></text>
 <text class="TextShape"><tspan class="TextParagraph" font-family="Arial" font-size="318px" font-weight="400"><tspan class="TextPosition" x="6896" y="8917"/><tspan class="TextPosition" x="6896" y="8917"><tspan fill="rgb(0,0,0)" stroke="none">Number of Processes</tspan></tspan></tspan></text>
 <text class="TextShape" transform="translate(811,6973) rotate(-90) translate(-811,-6973)"><tspan class="TextParagraph" font-family="Arial" font-size="318px" font-weight="400"><tspan class="TextPosition" x="811" y="6973"/><tspan class="TextPosition" x="811" y="6973"><tspan fill="rgb(0,0,0)" stroke="none">Atomic Operations per Second</tspan></tspan></tspan></text>
</svg>