<?xml version="1.0" encoding="UTF-8" standalone="no"?>
<!-- Created with Inkscape (http://www.inkscape.org/) -->

<svg
   xmlns:dc="http://purl.org/dc/elements/1.1/"
   xmlns:cc="http://creativecommons.org/ns#"
   xmlns:rdf="http://www.w3.org/1999/02/22-rdf-syntax-ns#"
   xmlns:svg="http://www.w3.org/2000/svg"
   xmlns="http://www.w3.org/2000/svg"
   xmlns:sodipodi="http://sodipodi.sourceforge.net/DTD/sodipodi-0.dtd"
   xmlns:inkscape="http://www.inkscape.org/namespaces/inkscape"
   width="760.60541"
   height="596.94135"
   id="svg2"
   version="1.1"
   inkscape:version="0.48.2 r9819"
   sodipodi:docname="synsem_logo_black.svg">
  <sodipodi:namedview
     id="base"
     pagecolor="#ffffff"
     bordercolor="#666666"
     borderopacity="1.0"
     inkscape:pageopacity="0.0"
     inkscape:pageshadow="2"
     inkscape:zoom="0.49497475"
     inkscape:cx="283.32897"
     inkscape:cy="542.97456"
     inkscape:document-units="mm"
     inkscape:current-layer="layer1"
     showgrid="false"
     units="pt"
     inkscape:window-width="1212"
     inkscape:window-height="742"
     inkscape:window-x="1902"
     inkscape:window-y="501"
     inkscape:window-maximized="0"
     fit-margin-top="0"
     fit-margin-left="0"
     fit-margin-right="0"
     fit-margin-bottom="0" />
  <defs
     id="defs4">
    <marker
       style="overflow:visible"
       id="Arrow1Send5PIb"
       refX="0"
       refY="0"
       orient="auto"
       inkscape:stockid="Arrow1Send5PIb">
      <path
         inkscape:connector-curvature="0"
         transform="matrix(-0.2,0,0,-0.2,-1.2,0)"
         style="stroke-width:1pt;marker-start:none;stroke:#000000;fill-rule:evenodd;fill:#000000"
         d="M 0,0 5,-5 -12.5,0 5,5 0,0 z"
         id="path3883" />
    </marker>
    <marker
       style="overflow:visible"
       id="Arrow1MendOAlkF"
       refX="0"
       refY="0"
       orient="auto"
       inkscape:stockid="Arrow1MendOAlkF">
      <path
         inkscape:connector-curvature="0"
         transform="matrix(-0.4,0,0,-0.4,-4,0)"
         style="marker-start:none;stroke:#000000;stroke-width:1pt;fill:#000000;fill-rule:evenodd"
         d="M 0,0 5,-5 -12.5,0 5,5 0,0 z"
         id="path3886" />
    </marker>
    <marker
       style="overflow:visible"
       id="StopMjW9Y"
       refX="0"
       refY="0"
       orient="auto"
       inkscape:stockid="StopMjW9Y">
      <path
         inkscape:connector-curvature="0"
         transform="scale(0.4,0.4)"
         style="stroke:#000000;stroke-width:1pt;fill:none"
         d="M 0,5.65 0,-5.65"
         id="path3889" />
    </marker>
  </defs>
  <metadata
     id="metadata7">
    <rdf:RDF>
      <cc:Work
         rdf:about="">
        <dc:format>image/svg+xml</dc:format>
        <dc:type
           rdf:resource="http://purl.org/dc/dcmitype/StillImage" />
        <dc:title />
      </cc:Work>
    </rdf:RDF>
  </metadata>
  <g
     inkscape:label="Layer 1"
     inkscape:groupmode="layer"
     id="layer1"
     transform="translate(-1440.3347,-315.49616)">
    <path
       sodipodi:nodetypes="cc"
       id="path2826-9-17-9-0-4-7"
       d="m 1826.9404,606.67285 111.8913,0.0993"
       style="stroke-linejoin:miter;stroke-opacity:1;stroke:#000000;stroke-linecap:butt;stroke-miterlimit:4;stroke-dasharray:none;stroke-width:15.93937969000000088;display:inline;fill:none"
       inkscape:connector-curvature="0" />
    <path
       sodipodi:nodetypes="csccscc"
       id="path2826-03-6-5-0-5-6-9"
       d="m 1981.8254,533.47601 c 53.4653,-0.439 70.4735,44.34954 70.3768,51.44486 -0.088,6.28703 -19.2545,50.09665 -67.0236,50.1079 l -57.0241,0.0882 c 0,0 14.7824,-38.19232 14.5443,-49.13384 -0.2746,-12.66044 -13.653,-52.57125 -13.653,-52.57125 l 55.2631,0.11803"
       style="stroke-linejoin:miter;stroke-opacity:1;stroke:#000000;stroke-linecap:butt;stroke-miterlimit:4;stroke-dasharray:none;stroke-width:15.93937969000000088;display:inline;fill:none"
       inkscape:connector-curvature="0" />
    <path
       transform="matrix(-6.4330513,-0.00470748,0.0046726,-6.4810692,6019.9873,1856.765)"
       sodipodi:open="true"
       sodipodi:end="11.290006"
       sodipodi:start="5.009004"
       d="m 613.53758,193.02657 c 1.41668,0.43298 2.21412,1.93242 1.78114,3.3491 -0.43298,1.41668 -1.93242,2.21412 -3.3491,1.78114 -1.41668,-0.43298 -2.21412,-1.93242 -1.78114,-3.3491 0.43231,-1.41449 1.92807,-2.21207 3.3435,-1.78284"
       sodipodi:ry="2.6822491"
       sodipodi:rx="2.6822491"
       sodipodi:cy="195.59169"
       sodipodi:cx="612.7536"
       id="path3867-6-1-2-2-3-0"
       style="stroke-opacity:1;stroke-dashoffset:0;stroke:#000000;stroke-linecap:square;stroke-miterlimit:4;stroke-dasharray:none;stroke-width:1.25353694000000004;display:inline;fill:none"
       sodipodi:type="arc" />
    <path
       sodipodi:nodetypes="cc"
       id="path2826-2-8-2-7-2-2"
       d="m 2167.8016,341.28255 c -12.4955,0.11803 -576.0089,-0.18199 -576.4141,0.26914"
       style="stroke-linejoin:miter;stroke-opacity:1;stroke:#000000;stroke-linecap:butt;stroke-miterlimit:4;stroke-dasharray:none;stroke-width:15.93937969000000088;display:inline;fill:none"
       inkscape:connector-curvature="0" />
    <path
       sodipodi:nodetypes="cc"
       id="path2826-2-0-3-7-3-6-3"
       d="m 1828.8824,600.80408 -0.2217,94.93349"
       style="stroke-linejoin:miter;stroke-opacity:1;stroke:#000000;stroke-linecap:butt;stroke-miterlimit:4;stroke-dasharray:none;stroke-width:15.93937969000000088;display:inline;fill:none"
       inkscape:connector-curvature="0" />
    <path
       sodipodi:nodetypes="cc"
       id="path2826-2-0-7-5-3-7-9-9"
       d="m 1768.7306,689.48936 119.4585,-1.03462"
       style="stroke-linejoin:miter;stroke-opacity:1;stroke:#000000;stroke-linecap:butt;stroke-miterlimit:4;stroke-dasharray:none;stroke-width:15.93937969000000088;display:inline;fill:none"
       inkscape:connector-curvature="0" />
    <path
       sodipodi:nodetypes="csc"
       id="path2826-2-0-7-6-2-7-9-4-9"
       d="m 1774.1729,749.9244 c 0,0 19.8061,-29.99267 55.1743,-30.03834 28.3051,-0.0331 54.9862,29.00338 54.9862,29.00338"
       style="stroke-linejoin:miter;stroke-opacity:1;stroke:#000000;stroke-linecap:butt;stroke-miterlimit:4;stroke-dasharray:none;stroke-width:15.93937969000000088;display:inline;fill:none"
       inkscape:connector-curvature="0" />
    <path
       sodipodi:nodetypes="cc"
       id="path2826-2-0-5-2-9-0-1-7"
       d="m 1829.562,723.12328 -0.546,130.17009"
       style="stroke-linejoin:miter;stroke-opacity:1;stroke:#000000;stroke-linecap:butt;stroke-miterlimit:4;stroke-dasharray:none;stroke-width:15.93937969000000088;display:inline;fill:none"
       inkscape:connector-curvature="0" />
    <path
       sodipodi:open="true"
       sodipodi:end="11.290006"
       sodipodi:start="5.009004"
       d="m 138.71629,507.72426 c 1.78216,0.54468 2.78534,2.43096 2.24065,4.21312 -0.54468,1.78216 -2.43096,2.78533 -4.21312,2.24065 -1.78216,-0.54469 -2.78533,-2.43097 -2.24065,-4.21313 0.54384,-1.7794 2.42548,-2.78275 4.20608,-2.24279"
       sodipodi:ry="3.3742332"
       sodipodi:rx="3.3742332"
       sodipodi:cy="510.95114"
       sodipodi:cx="137.73006"
       id="path2828-3-8-6-0-2-3-0"
       style="stroke-opacity:1;fill-rule:nonzero;fill-opacity:1;stroke-dashoffset:0;stroke:#000000;stroke-linecap:square;stroke-miterlimit:4;stroke-dasharray:none;stroke-width:1.99828469999999991;display:inline;fill:#000000"
       sodipodi:type="arc"
       transform="matrix(6.0871429,0.01985944,-0.01988194,6.0802968,999.98755,-2259.7007)" />
    <path
       sodipodi:nodetypes="cc"
       id="path2826-7-8-23-3-7-3"
       d="m 1458.5594,562.2204 249.7169,1.06661"
       style="stroke-linejoin:miter;stroke-opacity:1;stroke:#000000;stroke-linecap:butt;stroke-miterlimit:4;stroke-dasharray:none;stroke-width:15.93937969000000088;display:inline;fill:none"
       inkscape:connector-curvature="0" />
    <path
       sodipodi:nodetypes="csssssssssssssssssc"
       id="path2826-0-4-9-9-8-9"
       d="m 1469.1858,849.12918 c 0,0 -0.578,-27.75433 -0.3431,-30.80062 0.2383,-3.04618 0.2294,-6.63702 -0.7655,-8.8148 -3.076,-6.73839 -16.8018,-7.19757 -16.7489,-14.60494 0.055,-7.2815 11.2969,-9.20416 16.6684,-14.1206 4.4991,-4.11797 12.7051,-6.77081 13.0136,-12.86218 0.3453,-6.8478 -8.0932,-11.17292 -13.0941,-15.86368 -5.8795,-5.51438 -19.9132,-6.11453 -19.5968,-14.16925 0.4919,-12.52157 31.5347,-7.05197 32.0983,-19.57045 0.2349,-5.23047 -8.4595,-6.1731 -12.6223,-9.34888 -3.8407,-2.93003 -11.5574,-4.12525 -11.3957,-8.95323 0.2801,-8.3672 20.464,-5.79399 20.7425,-14.16119 0.2482,-7.43549 -17.9893,-6.35487 -17.5557,-13.78198 0.482,-8.2548 21.4688,-4.67962 21.1623,-12.94281 -0.4037,-10.85205 -27.9325,-4.08223 -28.9758,-14.89149 -1.3725,-14.21634 35.0042,-12.29391 33.6594,-26.51279 -0.6342,-6.69912 -14.4685,-8.84767 -17.9712,-14.59302 -1.2469,-2.04388 -1.3089,-10.93114 -1.0081,-14.01096 0.3011,-3.07971 0.3617,-20.31179 0.3617,-20.31179"
       style="stroke-linejoin:miter;stroke-opacity:1;stroke:#000000;stroke-linecap:butt;stroke-miterlimit:4;stroke-dasharray:none;stroke-width:15.93937969000000088;display:inline;fill:none"
       inkscape:connector-curvature="0" />
    <path
       sodipodi:nodetypes="csssssssssssssssssc"
       id="path2826-0-2-1-9-9-8-8"
       d="m 1527.6301,849.12918 c 0,0 -0.578,-27.75444 -0.3431,-30.80062 0.2394,-3.0464 0.2294,-6.63713 -0.7654,-8.8148 -3.0761,-6.73839 -16.8018,-7.19757 -16.7489,-14.60494 0.044,-7.28173 11.2968,-9.20416 16.6683,-14.1206 4.4992,-4.11797 12.7051,-6.77103 13.0136,-12.86218 0.3453,-6.8478 -8.0931,-11.17292 -13.0941,-15.86368 -5.8795,-5.51449 -19.9131,-6.11453 -19.5968,-14.16936 0.4919,-12.52157 31.5347,-7.05186 32.0982,-19.57034 0.236,-5.23047 -8.4594,-6.1731 -12.622,-9.34888 -3.8407,-2.93014 -11.5575,-4.12525 -11.3959,-8.95345 0.2802,-8.36698 20.4641,-5.79377 20.7425,-14.16097 0.2482,-7.4356 -17.9893,-6.35487 -17.5555,-13.78209 0.4821,-8.25469 21.4688,-4.67973 21.162,-12.9427 -0.4015,-10.85205 -27.9322,-4.08234 -28.9756,-14.89149 -1.3725,-14.21634 35.0041,-12.29391 33.6592,-26.51279 -0.6342,-6.69912 -14.4683,-8.84767 -17.971,-14.59302 -1.2455,-2.04388 -1.309,-10.93114 -1.0081,-14.01096 0.3011,-3.07971 0.3618,-20.31201 0.3618,-20.31201"
       style="stroke-linejoin:miter;stroke-opacity:1;stroke:#000000;stroke-linecap:butt;stroke-miterlimit:4;stroke-dasharray:none;stroke-width:15.93937969000000088;display:inline;fill:none"
       inkscape:connector-curvature="0" />
    <path
       sodipodi:nodetypes="csssssssssssssssssc"
       id="path2826-0-9-71-7-7-3-6"
       d="m 1586.0745,849.12918 c 0,0 -0.578,-27.75444 -0.343,-30.80062 0.2382,-3.0464 0.2294,-6.63702 -0.7655,-8.8148 -3.0761,-6.73839 -16.8018,-7.19779 -16.749,-14.60494 0.055,-7.28173 11.2969,-9.20416 16.6685,-14.1206 4.499,-4.11797 12.7051,-6.77103 13.0135,-12.86218 0.3452,-6.8478 -8.0931,-11.17303 -13.0941,-15.86368 -5.8796,-5.51449 -19.9131,-6.11453 -19.5968,-14.16936 0.492,-12.52157 31.5348,-7.05186 32.0983,-19.57034 0.235,-5.23047 -8.4595,-6.1731 -12.6222,-9.34888 -3.8406,-2.93014 -11.5575,-4.12525 -11.3959,-8.95345 0.2791,-8.36698 20.4641,-5.79377 20.7426,-14.16097 0.2482,-7.4356 -17.9894,-6.35487 -17.5556,-13.78198 0.4821,-8.2548 21.4688,-4.67984 21.1623,-12.94281 -0.4037,-10.85205 -27.9325,-4.08234 -28.9759,-14.8916 -1.3725,-14.21623 35.0043,-12.2938 33.6594,-26.51268 -0.6342,-6.69912 -14.4684,-8.84767 -17.9712,-14.59302 -1.2454,-2.04388 -1.3089,-10.93114 -1.0081,-14.01096 0.3011,-3.07971 0.3618,-20.31179 0.3618,-20.31179"
       style="stroke-linejoin:miter;stroke-opacity:1;stroke:#000000;stroke-linecap:butt;stroke-miterlimit:4;stroke-dasharray:none;stroke-width:15.93937969000000088;display:inline;fill:none"
       inkscape:connector-curvature="0" />
    <path
       sodipodi:nodetypes="csssssssssssssssssc"
       id="path2826-0-9-7-7-0-0-8-5"
       d="m 1644.5188,849.12918 c 0,0 -0.578,-27.75444 -0.343,-30.80062 0.2393,-3.0464 0.2294,-6.63713 -0.7655,-8.8148 -3.0761,-6.73839 -16.8018,-7.19779 -16.7488,-14.60494 0.055,-7.28173 11.2967,-9.20416 16.6684,-14.1206 4.4989,-4.11797 12.705,-6.77103 13.0136,-12.86218 0.3453,-6.8478 -8.0932,-11.17292 -13.0942,-15.86368 -5.8794,-5.51449 -19.9132,-6.11464 -19.5967,-14.16936 0.4919,-12.52157 31.5347,-7.05186 32.0982,-19.57045 0.236,-5.23047 -8.4596,-6.17299 -12.6222,-9.34877 -3.8407,-2.93014 -11.5574,-4.12525 -11.3958,-8.95345 0.2801,-8.3672 20.4642,-5.79377 20.7425,-14.16097 0.2481,-7.4356 -17.9893,-6.35487 -17.5555,-13.78209 0.482,-8.25469 21.4686,-4.67973 21.162,-12.9427 -0.4015,-10.85205 -27.9323,-4.08234 -28.9756,-14.89149 -1.3726,-14.21634 35.0041,-12.29391 33.6593,-26.51301 -0.6343,-6.6989 -14.4683,-8.84745 -17.9711,-14.5928 -1.2455,-2.04388 -1.3091,-10.93114 -1.0071,-14.01096 0.3012,-3.07971 0.3618,-20.31179 0.3618,-20.31179"
       style="stroke-linejoin:miter;stroke-opacity:1;stroke:#000000;stroke-linecap:butt;stroke-miterlimit:4;stroke-dasharray:none;stroke-width:15.93937969000000088;display:inline;fill:none"
       inkscape:connector-curvature="0" />
    <path
       sodipodi:nodetypes="cccccccccccc"
       id="path2826-2-2-3-7-5-2-6-3-3"
       d="m 1463.8726,850.16788 477.5119,-0.82394 12.8862,-54.00627 14.2279,93.53113 19.549,-93.6636 14.2278,93.5318 19.5489,-93.66361 14.2278,93.53191 19.549,-93.66372 13.0622,92.82775 14.1931,-39.98758 85.8474,0.0551"
       style="stroke-linejoin:bevel;stroke-opacity:1;stroke:#000000;stroke-linecap:butt;stroke-miterlimit:4;stroke-dasharray:none;stroke-width:15.93937969000000088;display:inline;fill:none"
       inkscape:connector-curvature="0" />
    <path
       sodipodi:nodetypes="csssssssssssssssssc"
       id="path2826-0-9-3-8-3-3-1-7"
       d="m 1702.9632,849.12918 c 0,0 -0.578,-27.75444 -0.3431,-30.80062 0.2394,-3.0464 0.2294,-6.63702 -0.7655,-8.8148 -3.0759,-6.73839 -16.8017,-7.19779 -16.7488,-14.60494 0.055,-7.28173 11.297,-9.20416 16.6683,-14.1206 4.4992,-4.11797 12.7052,-6.77103 13.0136,-12.86218 0.3453,-6.8478 -8.0931,-11.17292 -13.0939,-15.86368 -5.8797,-5.51449 -19.9132,-6.11464 -19.5969,-14.16936 0.4919,-12.52157 31.5347,-7.05186 32.0983,-19.57045 0.2349,-5.23036 -8.4595,-6.17299 -12.6223,-9.34877 -3.8405,-2.93014 -11.5574,-4.12525 -11.3958,-8.95323 0.2801,-8.36742 20.4641,-5.79399 20.7426,-14.16119 0.2482,-7.4356 -17.9892,-6.35487 -17.5556,-13.78209 0.482,-8.25469 21.4687,-4.67973 21.1621,-12.9427 -0.4037,-10.85205 -27.9324,-4.08234 -28.9757,-14.89149 -1.3726,-14.21634 35.0042,-12.29391 33.6594,-26.51279 -0.6342,-6.69912 -14.4683,-8.84767 -17.9712,-14.59302 -1.2455,-2.04388 -1.3089,-10.93136 -1.0081,-14.01096 0.3011,-3.07971 0.3617,-20.31179 0.3617,-20.31179"
       style="stroke-linejoin:miter;stroke-opacity:1;stroke:#000000;stroke-linecap:butt;stroke-miterlimit:4;stroke-dasharray:none;stroke-width:15.93937969000000088;display:inline;fill:none"
       inkscape:connector-curvature="0" />
    <path
       sodipodi:nodetypes="cc"
       id="path2826-9-5-8-7-9-9-5-6"
       d="M 2161.376,849.61406 2160.99,434.36697"
       style="stroke-linejoin:miter;marker-end:url(#Arrow1MendOAlkF);stroke-opacity:1;stroke:#000000;stroke-linecap:butt;stroke-miterlimit:4;stroke-dasharray:none;stroke-width:15.93937969000000088;display:inline;fill:none"
       inkscape:connector-curvature="0" />
    <path
       sodipodi:nodetypes="cc"
       id="path2826-9-5-4-7-8-8-3-2"
       d="m 2160.9338,401.39231 -0.4897,-63.92253"
       style="stroke-linejoin:miter;marker-end:none;stroke-opacity:1;marker-start:url(#StopMjW9Y);stroke:#000000;stroke-linecap:butt;stroke-miterlimit:4;stroke-dasharray:none;stroke-width:15.93937969000000088;display:inline;fill:none"
       inkscape:connector-curvature="0" />
    <path
       sodipodi:nodetypes="cc"
       id="path2826-9-1-5-5-5-5-7"
       d="m 2092.1804,586.54306 72.3013,0.0441"
       style="stroke-linejoin:miter;stroke-opacity:1;stroke:#000000;stroke-linecap:butt;stroke-miterlimit:4;stroke-dasharray:none;stroke-width:15.93937969000000088;display:inline;fill:none"
       inkscape:connector-curvature="0" />
    <path
       sodipodi:open="true"
       sodipodi:end="11.290006"
       sodipodi:start="5.009004"
       d="m 138.71629,507.72426 c 1.78216,0.54468 2.78534,2.43096 2.24065,4.21312 -0.54468,1.78216 -2.43096,2.78533 -4.21312,2.24065 -1.78216,-0.54469 -2.78533,-2.43097 -2.24065,-4.21313 0.54384,-1.7794 2.42548,-2.78275 4.20608,-2.24279"
       sodipodi:ry="3.3742332"
       sodipodi:rx="3.3742332"
       sodipodi:cy="510.95114"
       sodipodi:cx="137.73006"
       id="path2828-3-3-4-3-5-76-7-4-0"
       style="stroke-opacity:1;fill-rule:nonzero;fill-opacity:1;stroke-dashoffset:0;stroke:#000000;stroke-linecap:square;stroke-miterlimit:4;stroke-dasharray:none;stroke-width:1.99828469999999991;display:inline;fill:#000000"
       sodipodi:type="arc"
       transform="matrix(6.0871429,0.01985944,-0.01988194,6.0802968,1332.3513,-2522.7798)" />
    <path
       inkscape:transform-center-y="113.93821"
       inkscape:transform-center-x="-159.27167"
       sodipodi:nodetypes="cc"
       id="path2826-9-5-88-8-70-2-6-9"
       d="M 1926.5925,907.97754 2091.4992,770.98877"
       style="stroke-linejoin:miter;marker-end:url(#Arrow1Send5PIb);stroke-opacity:1;stroke:#000000;stroke-linecap:butt;stroke-miterlimit:4;stroke-dasharray:none;stroke-width:11.62246513000000014;display:inline;fill:none"
       inkscape:connector-curvature="0" />
    <path
       sodipodi:nodetypes="ccc"
       id="path2826-9-1-5-0-1-9-5-9"
       d="m 1828.8164,342.7104 -0.055,220.95914 111.2981,0.11802"
       style="stroke-linejoin:miter;stroke-opacity:1;stroke:#000000;stroke-linecap:butt;stroke-miterlimit:4;stroke-dasharray:none;stroke-width:15.93937969000000088;display:inline;fill:none"
       inkscape:connector-curvature="0" />
    <path
       sodipodi:open="true"
       sodipodi:end="11.290006"
       sodipodi:start="5.009004"
       d="m 138.71629,507.72426 c 1.78216,0.54468 2.78534,2.43096 2.24065,4.21312 -0.54468,1.78216 -2.43096,2.78533 -4.21312,2.24065 -1.78216,-0.54469 -2.78533,-2.43097 -2.24065,-4.21313 0.54384,-1.7794 2.42548,-2.78275 4.20608,-2.24279"
       sodipodi:ry="3.3742332"
       sodipodi:rx="3.3742332"
       sodipodi:cy="510.95114"
       sodipodi:cx="137.73006"
       id="path2828-3-3-44-2-58-3-5-9"
       style="stroke-opacity:1;fill-rule:nonzero;fill-opacity:1;stroke-dashoffset:0;stroke:#000000;stroke-linecap:square;stroke-miterlimit:4;stroke-dasharray:none;stroke-width:1.99828469999999991;display:inline;fill:#000000"
       sodipodi:type="arc"
       transform="matrix(6.0871429,0.01985944,-0.01988194,6.0802968,1000.8787,-2766.726)" />
    <path
       sodipodi:nodetypes="cccssssccsccsc"
       id="path2826-0-4-8-6-1-6-4-1"
       d="m 1596.7007,560.66417 c 0,0 -0.235,-12.89306 0,-15.93935 0,-15.93946 -15.892,-16.36214 -21.2526,-26.56562 0.044,-7.28173 15.3304,-13.23776 20.7019,-18.1542 4.4991,-4.11797 12.7051,-6.77092 13.0137,-12.86218 0.3474,-6.8478 -8.0933,-11.17292 -13.0942,-15.86368 -5.8795,-5.51449 -19.9131,-6.11453 -19.5968,-14.16925 0.4919,-12.52168 31.5347,-7.05186 32.0983,-19.57045 -4.2027,-7.04646 -13.2788,-3.86748 -22.8684,-9.98234 -7.2596,-7.4399 19.1333,-5.49949 18.7176,-13.75782 -0.4037,-7.99968 -41.7856,-17.5279 -30.6055,-28.74462 9.8291,-4.87518 22.0786,-6.20927 22.886,-15.66293 -0.4313,-2.04399 0,0 0,-5.31319 0,-3.09438 0,-29.18881 0,-29.18881"
       style="stroke-linejoin:miter;stroke-opacity:1;stroke:#000000;stroke-linecap:butt;stroke-miterlimit:4;stroke-dasharray:none;stroke-width:15.93937969000000088;display:inline;fill:none"
       inkscape:connector-curvature="0" />
  </g>
</svg>
