<?xml version="1.0" encoding="UTF-8"?>
<!DOCTYPE svg PUBLIC "-//W3C//DTD SVG 1.1//EN" "http://www.w3.org/Graphics/SVG/1.1/DTD/svg11.dtd">
<svg width="134mm" height="79mm" viewBox="0 0 13400 7900" version="1.1" baseProfile="tiny" xmlns="http://www.w3.org/2000/svg" stroke-width="28.222" stroke-linejoin="round" xml:space="preserve">
 <path fill="none" stroke="rgb(179,179,179)" stroke-linejoin="round" d="M 7683,6180 L 2747,6180 2747,1388 12619,1388 12619,6180 7683,6180 Z"/>
 <path fill="none" stroke="rgb(179,179,179)" stroke-linejoin="round" d="M 12619,6179 L 2747,6179"/>
 <path fill="none" stroke="rgb(179,179,179)" stroke-linejoin="round" d="M 12619,5579 L 2747,5579"/>
 <path fill="none" stroke="rgb(179,179,179)" stroke-linejoin="round" d="M 12619,4980 L 2747,4980"/>
 <path fill="none" stroke="rgb(179,179,179)" stroke-linejoin="round" d="M 12619,4381 L 2747,4381"/>
 <path fill="none" stroke="rgb(179,179,179)" stroke-linejoin="round" d="M 12619,3783 L 2747,3783"/>
 <path fill="none" stroke="rgb(179,179,179)" stroke-linejoin="round" d="M 12619,3184 L 2747,3184"/>
 <path fill="none" stroke="rgb(179,179,179)" stroke-linejoin="round" d="M 12619,2585 L 2747,2585"/>
 <path fill="none" stroke="rgb(179,179,179)" stroke-linejoin="round" d="M 12619,1986 L 2747,1986"/>
 <path fill="none" stroke="rgb(179,179,179)" stroke-linejoin="round" d="M 12619,1387 L 2747,1387"/>
 <path fill="none" stroke="rgb(179,179,179)" stroke-linejoin="round" d="M 2747,6329 L 2747,6179"/>
 <path fill="none" stroke="rgb(179,179,179)" stroke-linejoin="round" d="M 2747,6329 L 2747,6179"/>
 <path fill="none" stroke="rgb(179,179,179)" stroke-linejoin="round" d="M 4157,6329 L 4157,6179"/>
 <path fill="none" stroke="rgb(179,179,179)" stroke-linejoin="round" d="M 4157,6329 L 4157,6179"/>
 <path fill="none" stroke="rgb(179,179,179)" stroke-linejoin="round" d="M 5567,6329 L 5567,6179"/>
 <path fill="none" stroke="rgb(179,179,179)" stroke-linejoin="round" d="M 5567,6329 L 5567,6179"/>
 <path fill="none" stroke="rgb(179,179,179)" stroke-linejoin="round" d="M 6977,6329 L 6977,6179"/>
 <path fill="none" stroke="rgb(179,179,179)" stroke-linejoin="round" d="M 6977,6329 L 6977,6179"/>
 <path fill="none" stroke="rgb(179,179,179)" stroke-linejoin="round" d="M 8387,6329 L 8387,6179"/>
 <path fill="none" stroke="rgb(179,179,179)" stroke-linejoin="round" d="M 8387,6329 L 8387,6179"/>
 <path fill="none" stroke="rgb(179,179,179)" stroke-linejoin="round" d="M 9798,6329 L 9798,6179"/>
 <path fill="none" stroke="rgb(179,179,179)" stroke-linejoin="round" d="M 9798,6329 L 9798,6179"/>
 <path fill="none" stroke="rgb(179,179,179)" stroke-linejoin="round" d="M 11208,6329 L 11208,6179"/>
 <path fill="none" stroke="rgb(179,179,179)" stroke-linejoin="round" d="M 11208,6329 L 11208,6179"/>
 <path fill="none" stroke="rgb(179,179,179)" stroke-linejoin="round" d="M 12619,6329 L 12619,6179"/>
 <path fill="none" stroke="rgb(179,179,179)" stroke-linejoin="round" d="M 12619,6329 L 12619,6179"/>
 <path fill="none" stroke="rgb(179,179,179)" stroke-linejoin="round" d="M 2747,6179 L 12619,6179"/>
 <path fill="none" stroke="rgb(179,179,179)" stroke-linejoin="round" d="M 2597,6179 L 2747,6179"/>
 <path fill="none" stroke="rgb(179,179,179)" stroke-linejoin="round" d="M 2597,6179 L 2747,6179"/>
 <path fill="none" stroke="rgb(179,179,179)" stroke-linejoin="round" d="M 2597,5579 L 2747,5579"/>
 <path fill="none" stroke="rgb(179,179,179)" stroke-linejoin="round" d="M 2597,5579 L 2747,5579"/>
 <path fill="none" stroke="rgb(179,179,179)" stroke-linejoin="round" d="M 2597,4980 L 2747,4980"/>
 <path fill="none" stroke="rgb(179,179,179)" stroke-linejoin="round" d="M 2597,4980 L 2747,4980"/>
 <path fill="none" stroke="rgb(179,179,179)" stroke-linejoin="round" d="M 2597,4381 L 2747,4381"/>
 <path fill="none" stroke="rgb(179,179,179)" stroke-linejoin="round" d="M 2597,4381 L 2747,4381"/>
 <path fill="none" stroke="rgb(179,179,179)" stroke-linejoin="round" d="M 2597,3783 L 2747,3783"/>
 <path fill="none" stroke="rgb(179,179,179)" stroke-linejoin="round" d="M 2597,3783 L 2747,3783"/>
 <path fill="none" stroke="rgb(179,179,179)" stroke-linejoin="round" d="M 2597,3184 L 2747,3184"/>
 <path fill="none" stroke="rgb(179,179,179)" stroke-linejoin="round" d="M 2597,3184 L 2747,3184"/>
 <path fill="none" stroke="rgb(179,179,179)" stroke-linejoin="round" d="M 2597,2585 L 2747,2585"/>
 <path fill="none" stroke="rgb(179,179,179)" stroke-linejoin="round" d="M 2597,2585 L 2747,2585"/>
 <path fill="none" stroke="rgb(179,179,179)" stroke-linejoin="round" d="M 2597,1986 L 2747,1986"/>
 <path fill="none" stroke="rgb(179,179,179)" stroke-linejoin="round" d="M 2597,1986 L 2747,1986"/>
 <path fill="none" stroke="rgb(179,179,179)" stroke-linejoin="round" d="M 2597,1387 L 2747,1387"/>
 <path fill="none" stroke="rgb(179,179,179)" stroke-linejoin="round" d="M 2597,1387 L 2747,1387"/>
 <path fill="none" stroke="rgb(179,179,179)" stroke-linejoin="round" d="M 2747,6179 L 2747,1387"/>
 <path fill="none" stroke="rgb(255,66,14)" stroke-width="80" stroke-linejoin="round" d="M 2747,5325 L 4157,4807 5567,4202 6977,3483 8387,2628 9798,2216 11208,1701 12619,1644"/>
 <path fill="rgb(255,66,14)" stroke="none" d="M 2622,5325 L 2747,5450 2872,5325 2747,5200 2622,5325 Z"/>
 <path fill="none" stroke="rgb(255,66,14)" stroke-linejoin="round" d="M 2622,5325 L 2747,5450 2872,5325 2747,5200 2622,5325 Z"/>
 <path fill="rgb(255,66,14)" stroke="none" d="M 4032,4807 L 4157,4932 4282,4807 4157,4682 4032,4807 Z"/>
 <path fill="none" stroke="rgb(255,66,14)" stroke-linejoin="round" d="M 4032,4807 L 4157,4932 4282,4807 4157,4682 4032,4807 Z"/>
 <path fill="rgb(255,66,14)" stroke="none" d="M 5442,4202 L 5567,4327 5692,4202 5567,4077 5442,4202 Z"/>
 <path fill="none" stroke="rgb(255,66,14)" stroke-linejoin="round" d="M 5442,4202 L 5567,4327 5692,4202 5567,4077 5442,4202 Z"/>
 <path fill="rgb(255,66,14)" stroke="none" d="M 6852,3483 L 6977,3608 7102,3483 6977,3358 6852,3483 Z"/>
 <path fill="none" stroke="rgb(255,66,14)" stroke-linejoin="round" d="M 6852,3483 L 6977,3608 7102,3483 6977,3358 6852,3483 Z"/>
 <path fill="rgb(255,66,14)" stroke="none" d="M 8262,2628 L 8387,2753 8512,2628 8387,2503 8262,2628 Z"/>
 <path fill="none" stroke="rgb(255,66,14)" stroke-linejoin="round" d="M 8262,2628 L 8387,2753 8512,2628 8387,2503 8262,2628 Z"/>
 <path fill="rgb(255,66,14)" stroke="none" d="M 9673,2216 L 9798,2341 9923,2216 9798,2091 9673,2216 Z"/>
 <path fill="none" stroke="rgb(255,66,14)" stroke-linejoin="round" d="M 9673,2216 L 9798,2341 9923,2216 9798,2091 9673,2216 Z"/>
 <path fill="rgb(255,66,14)" stroke="none" d="M 11083,1701 L 11208,1826 11333,1701 11208,1576 11083,1701 Z"/>
 <path fill="none" stroke="rgb(255,66,14)" stroke-linejoin="round" d="M 11083,1701 L 11208,1826 11333,1701 11208,1576 11083,1701 Z"/>
 <path fill="rgb(255,66,14)" stroke="none" d="M 12494,1644 L 12619,1769 12744,1644 12619,1519 12494,1644 Z"/>
 <path fill="none" stroke="rgb(255,66,14)" stroke-linejoin="round" d="M 12494,1644 L 12619,1769 12744,1644 12619,1519 12494,1644 Z"/>
 <path fill="none" stroke="rgb(255,211,32)" stroke-width="80" stroke-linejoin="round" d="M 2747,5965 L 4157,5835 5567,5685 6977,5504 8387,5291 9798,5188 11208,5059 12619,5044"/>
 <path fill="rgb(255,211,32)" stroke="none" d="M 2622,5840 L 2747,6090 2872,5840 2622,5840 Z"/>
 <path fill="none" stroke="rgb(255,211,32)" stroke-linejoin="round" d="M 2622,5840 L 2747,6090 2872,5840 2622,5840 Z"/>
 <path fill="rgb(255,211,32)" stroke="none" d="M 4032,5710 L 4157,5960 4282,5710 4032,5710 Z"/>
 <path fill="none" stroke="rgb(255,211,32)" stroke-linejoin="round" d="M 4032,5710 L 4157,5960 4282,5710 4032,5710 Z"/>
 <path fill="rgb(255,211,32)" stroke="none" d="M 5442,5560 L 5567,5810 5692,5560 5442,5560 Z"/>
 <path fill="none" stroke="rgb(255,211,32)" stroke-linejoin="round" d="M 5442,5560 L 5567,5810 5692,5560 5442,5560 Z"/>
 <path fill="rgb(255,211,32)" stroke="none" d="M 6852,5379 L 6977,5629 7102,5379 6852,5379 Z"/>
 <path fill="none" stroke="rgb(255,211,32)" stroke-linejoin="round" d="M 6852,5379 L 6977,5629 7102,5379 6852,5379 Z"/>
 <path fill="rgb(255,211,32)" stroke="none" d="M 8262,5166 L 8387,5416 8512,5166 8262,5166 Z"/>
 <path fill="none" stroke="rgb(255,211,32)" stroke-linejoin="round" d="M 8262,5166 L 8387,5416 8512,5166 8262,5166 Z"/>
 <path fill="rgb(255,211,32)" stroke="none" d="M 9673,5063 L 9798,5313 9923,5063 9673,5063 Z"/>
 <path fill="none" stroke="rgb(255,211,32)" stroke-linejoin="round" d="M 9673,5063 L 9798,5313 9923,5063 9673,5063 Z"/>
 <path fill="rgb(255,211,32)" stroke="none" d="M 11083,4934 L 11208,5184 11333,4934 11083,4934 Z"/>
 <path fill="none" stroke="rgb(255,211,32)" stroke-linejoin="round" d="M 11083,4934 L 11208,5184 11333,4934 11083,4934 Z"/>
 <path fill="rgb(255,211,32)" stroke="none" d="M 12494,4919 L 12619,5169 12744,4919 12494,4919 Z"/>
 <path fill="none" stroke="rgb(255,211,32)" stroke-linejoin="round" d="M 12494,4919 L 12619,5169 12744,4919 12494,4919 Z"/>
 <path fill="none" stroke="rgb(87,157,28)" stroke-width="80" stroke-linejoin="round" d="M 2747,4622 L 4157,4660 5567,4731 6977,4956 8387,5005 9798,5154 11208,5277 12619,5358"/>
 <path fill="rgb(87,157,28)" stroke="none" d="M 2622,4747 L 2872,4747 2747,4497 2622,4747 Z"/>
 <path fill="none" stroke="rgb(87,157,28)" stroke-linejoin="round" d="M 2622,4747 L 2872,4747 2747,4497 2622,4747 Z"/>
 <path fill="rgb(87,157,28)" stroke="none" d="M 4032,4785 L 4282,4785 4157,4535 4032,4785 Z"/>
 <path fill="none" stroke="rgb(87,157,28)" stroke-linejoin="round" d="M 4032,4785 L 4282,4785 4157,4535 4032,4785 Z"/>
 <path fill="rgb(87,157,28)" stroke="none" d="M 5442,4856 L 5692,4856 5567,4606 5442,4856 Z"/>
 <path fill="none" stroke="rgb(87,157,28)" stroke-linejoin="round" d="M 5442,4856 L 5692,4856 5567,4606 5442,4856 Z"/>
 <path fill="rgb(87,157,28)" stroke="none" d="M 6852,5081 L 7102,5081 6977,4831 6852,5081 Z"/>
 <path fill="none" stroke="rgb(87,157,28)" stroke-linejoin="round" d="M 6852,5081 L 7102,5081 6977,4831 6852,5081 Z"/>
 <path fill="rgb(87,157,28)" stroke="none" d="M 8262,5130 L 8512,5130 8387,4880 8262,5130 Z"/>
 <path fill="none" stroke="rgb(87,157,28)" stroke-linejoin="round" d="M 8262,5130 L 8512,5130 8387,4880 8262,5130 Z"/>
 <path fill="rgb(87,157,28)" stroke="none" d="M 9673,5279 L 9923,5279 9798,5029 9673,5279 Z"/>
 <path fill="none" stroke="rgb(87,157,28)" stroke-linejoin="round" d="M 9673,5279 L 9923,5279 9798,5029 9673,5279 Z"/>
 <path fill="rgb(87,157,28)" stroke="none" d="M 11083,5402 L 11333,5402 11208,5152 11083,5402 Z"/>
 <path fill="none" stroke="rgb(87,157,28)" stroke-linejoin="round" d="M 11083,5402 L 11333,5402 11208,5152 11083,5402 Z"/>
 <path fill="rgb(87,157,28)" stroke="none" d="M 12494,5483 L 12744,5483 12619,5233 12494,5483 Z"/>
 <path fill="none" stroke="rgb(87,157,28)" stroke-linejoin="round" d="M 12494,5483 L 12744,5483 12619,5233 12494,5483 Z"/>
 <path fill="none" stroke="rgb(126,0,33)" stroke-width="80" stroke-linejoin="round" d="M 2747,5837 L 4157,5630 5567,5389 6977,5100 8387,4758 9798,4592 11208,4386 12619,4365"/>
 <path fill="rgb(126,0,33)" stroke="none" d="M 2622,5712 L 2622,5962 2872,5837 2622,5712 Z"/>
 <path fill="none" stroke="rgb(126,0,33)" stroke-linejoin="round" d="M 2622,5712 L 2622,5962 2872,5837 2622,5712 Z"/>
 <path fill="rgb(126,0,33)" stroke="none" d="M 4032,5505 L 4032,5755 4282,5630 4032,5505 Z"/>
 <path fill="none" stroke="rgb(126,0,33)" stroke-linejoin="round" d="M 4032,5505 L 4032,5755 4282,5630 4032,5505 Z"/>
 <path fill="rgb(126,0,33)" stroke="none" d="M 5442,5264 L 5442,5514 5692,5389 5442,5264 Z"/>
 <path fill="none" stroke="rgb(126,0,33)" stroke-linejoin="round" d="M 5442,5264 L 5442,5514 5692,5389 5442,5264 Z"/>
 <path fill="rgb(126,0,33)" stroke="none" d="M 6852,4975 L 6852,5225 7102,5100 6852,4975 Z"/>
 <path fill="none" stroke="rgb(126,0,33)" stroke-linejoin="round" d="M 6852,4975 L 6852,5225 7102,5100 6852,4975 Z"/>
 <path fill="rgb(126,0,33)" stroke="none" d="M 8262,4633 L 8262,4883 8512,4758 8262,4633 Z"/>
 <path fill="none" stroke="rgb(126,0,33)" stroke-linejoin="round" d="M 8262,4633 L 8262,4883 8512,4758 8262,4633 Z"/>
 <path fill="rgb(126,0,33)" stroke="none" d="M 9673,4467 L 9673,4717 9923,4592 9673,4467 Z"/>
 <path fill="none" stroke="rgb(126,0,33)" stroke-linejoin="round" d="M 9673,4467 L 9673,4717 9923,4592 9673,4467 Z"/>
 <path fill="rgb(126,0,33)" stroke="none" d="M 11083,4261 L 11083,4511 11333,4386 11083,4261 Z"/>
 <path fill="none" stroke="rgb(126,0,33)" stroke-linejoin="round" d="M 11083,4261 L 11083,4511 11333,4386 11083,4261 Z"/>
 <path fill="rgb(126,0,33)" stroke="none" d="M 12494,4240 L 12494,4490 12744,4365 12494,4240 Z"/>
 <path fill="none" stroke="rgb(126,0,33)" stroke-linejoin="round" d="M 12494,4240 L 12494,4490 12744,4365 12494,4240 Z"/>
 <text class="TextShape"><tspan class="TextParagraph" font-family="Liberation Sans" font-size="353px" font-weight="400"><tspan class="TextPosition" x="2654" y="6747"/><tspan class="TextPosition" x="2654" y="6747"><tspan fill="rgb(0,0,0)" stroke="none">1</tspan></tspan></tspan></text>
 <text class="TextShape"><tspan class="TextParagraph" font-family="Liberation Sans" font-size="353px" font-weight="400"><tspan class="TextPosition" x="4064" y="6747"/><tspan class="TextPosition" x="4064" y="6747"><tspan fill="rgb(0,0,0)" stroke="none">2</tspan></tspan></tspan></text>
 <text class="TextShape"><tspan class="TextParagraph" font-family="Liberation Sans" font-size="353px" font-weight="400"><tspan class="TextPosition" x="5474" y="6747"/><tspan class="TextPosition" x="5474" y="6747"><tspan fill="rgb(0,0,0)" stroke="none">4</tspan></tspan></tspan></text>
 <text class="TextShape"><tspan class="TextParagraph" font-family="Liberation Sans" font-size="353px" font-weight="400"><tspan class="TextPosition" x="6885" y="6747"/><tspan class="TextPosition" x="6885" y="6747"><tspan fill="rgb(0,0,0)" stroke="none">8</tspan></tspan></tspan></text>
 <text class="TextShape"><tspan class="TextParagraph" font-family="Liberation Sans" font-size="353px" font-weight="400"><tspan class="TextPosition" x="8203" y="6747"/><tspan class="TextPosition" x="8203" y="6747"><tspan fill="rgb(0,0,0)" stroke="none">16</tspan></tspan></tspan></text>
 <text class="TextShape"><tspan class="TextParagraph" font-family="Liberation Sans" font-size="353px" font-weight="400"><tspan class="TextPosition" x="9614" y="6747"/><tspan class="TextPosition" x="9614" y="6747"><tspan fill="rgb(0,0,0)" stroke="none">24</tspan></tspan></tspan></text>
 <text class="TextShape"><tspan class="TextParagraph" font-family="Liberation Sans" font-size="353px" font-weight="400"><tspan class="TextPosition" x="11024" y="6747"/><tspan class="TextPosition" x="11024" y="6747"><tspan fill="rgb(0,0,0)" stroke="none">32</tspan></tspan></tspan></text>
 <text class="TextShape"><tspan class="TextParagraph" font-family="Liberation Sans" font-size="353px" font-weight="400"><tspan class="TextPosition" x="12435" y="6747"/><tspan class="TextPosition" x="12435" y="6747"><tspan fill="rgb(0,0,0)" stroke="none">36</tspan></tspan></tspan></text>
 <text class="TextShape"><tspan class="TextParagraph" font-family="Liberation Sans" font-size="353px" font-weight="400"><tspan class="TextPosition" x="2312" y="6313"/><tspan class="TextPosition" x="2312" y="6313"><tspan fill="rgb(0,0,0)" stroke="none">0</tspan></tspan></tspan></text>
 <text class="TextShape"><tspan class="TextParagraph" font-family="Liberation Sans" font-size="353px" font-weight="400"><tspan class="TextPosition" x="1227" y="5713"/><tspan class="TextPosition" x="1227" y="5713"><tspan fill="rgb(0,0,0)" stroke="none">200,000</tspan></tspan></tspan></text>
 <text class="TextShape"><tspan class="TextParagraph" font-family="Liberation Sans" font-size="353px" font-weight="400"><tspan class="TextPosition" x="1227" y="5114"/><tspan class="TextPosition" x="1227" y="5114"><tspan fill="rgb(0,0,0)" stroke="none">400,000</tspan></tspan></tspan></text>
 <text class="TextShape"><tspan class="TextParagraph" font-family="Liberation Sans" font-size="353px" font-weight="400"><tspan class="TextPosition" x="1227" y="4515"/><tspan class="TextPosition" x="1227" y="4515"><tspan fill="rgb(0,0,0)" stroke="none">600,000</tspan></tspan></tspan></text>
 <text class="TextShape"><tspan class="TextParagraph" font-family="Liberation Sans" font-size="353px" font-weight="400"><tspan class="TextPosition" x="1227" y="3916"/><tspan class="TextPosition" x="1227" y="3916"><tspan fill="rgb(0,0,0)" stroke="none">800,000</tspan></tspan></tspan></text>
 <text class="TextShape"><tspan class="TextParagraph" font-family="Liberation Sans" font-size="353px" font-weight="400"><tspan class="TextPosition" x="936" y="3317"/><tspan class="TextPosition" x="936" y="3317"><tspan fill="rgb(0,0,0)" stroke="none">1,000,000</tspan></tspan></tspan></text>
 <text class="TextShape"><tspan class="TextParagraph" font-family="Liberation Sans" font-size="353px" font-weight="400"><tspan class="TextPosition" x="936" y="2718"/><tspan class="TextPosition" x="936" y="2718"><tspan fill="rgb(0,0,0)" stroke="none">1,200,000</tspan></tspan></tspan></text>
 <text class="TextShape"><tspan class="TextParagraph" font-family="Liberation Sans" font-size="353px" font-weight="400"><tspan class="TextPosition" x="936" y="2119"/><tspan class="TextPosition" x="936" y="2119"><tspan fill="rgb(0,0,0)" stroke="none">1,400,000</tspan></tspan></tspan></text>
 <text class="TextShape"><tspan class="TextParagraph" font-family="Liberation Sans" font-size="353px" font-weight="400"><tspan class="TextPosition" x="936" y="1520"/><tspan class="TextPosition" x="936" y="1520"><tspan fill="rgb(0,0,0)" stroke="none">1,600,000</tspan></tspan></tspan></text>
 <text class="TextShape"><tspan class="TextParagraph" font-family="Arial" font-size="459px" font-weight="400"><tspan class="TextPosition" x="2872" y="827"/><tspan class="TextPosition" x="2872" y="827"><tspan fill="rgb(0,0,0)" stroke="none">Transactions from a Queue (Integers)</tspan></tspan></tspan></text>
 <path fill="none" stroke="rgb(255,66,14)" stroke-width="80" stroke-linejoin="round" d="M 3047,1832 L 3847,1832"/>
 <path fill="rgb(255,66,14)" stroke="none" d="M 3341,1832 L 3447,1938 3552,1832 3447,1727 3341,1832 Z"/>
 <path fill="none" stroke="rgb(255,66,14)" stroke-linejoin="round" d="M 3341,1832 L 3447,1938 3552,1832 3447,1727 3341,1832 Z"/>
 <path fill="none" stroke="rgb(255,211,32)" stroke-width="80" stroke-linejoin="round" d="M 3047,2321 L 3847,2321"/>
 <path fill="rgb(255,211,32)" stroke="none" d="M 3341,2216 L 3447,2427 3552,2216 3341,2216 Z"/>
 <path fill="none" stroke="rgb(255,211,32)" stroke-linejoin="round" d="M 3341,2216 L 3447,2427 3552,2216 3341,2216 Z"/>
 <path fill="none" stroke="rgb(87,157,28)" stroke-width="80" stroke-linejoin="round" d="M 3047,2810 L 3847,2810"/>
 <path fill="rgb(87,157,28)" stroke="none" d="M 3341,2916 L 3552,2916 3447,2705 3341,2916 Z"/>
 <path fill="none" stroke="rgb(87,157,28)" stroke-linejoin="round" d="M 3341,2916 L 3552,2916 3447,2705 3341,2916 Z"/>
 <path fill="none" stroke="rgb(126,0,33)" stroke-width="80" stroke-linejoin="round" d="M 3047,3299 L 3847,3299"/>
 <path fill="rgb(126,0,33)" stroke="none" d="M 3341,3194 L 3341,3405 3552,3299 3341,3194 Z"/>
 <path fill="none" stroke="rgb(126,0,33)" stroke-linejoin="round" d="M 3341,3194 L 3341,3405 3552,3299 3341,3194 Z"/>
 <text class="TextShape"><tspan class="TextParagraph" font-family="Arial" font-size="353px" font-weight="400"><tspan class="TextPosition" x="3947" y="1965"/><tspan class="TextPosition" x="3947" y="1965"><tspan fill="rgb(0,0,0)" stroke="none">Elem. Ref&apos;d.</tspan></tspan></tspan></text>
 <text class="TextShape"><tspan class="TextParagraph" font-family="Arial" font-size="353px" font-weight="400"><tspan class="TextPosition" x="3947" y="2454"/><tspan class="TextPosition" x="3947" y="2454"><tspan fill="rgb(0,0,0)" stroke="none">Table Updates</tspan></tspan></tspan></text>
 <text class="TextShape"><tspan class="TextParagraph" font-family="Arial" font-size="353px" font-weight="400"><tspan class="TextPosition" x="3947" y="2943"/><tspan class="TextPosition" x="3947" y="2943"><tspan fill="rgb(0,0,0)" stroke="none">Trans. Enqued</tspan></tspan></tspan></text>
 <text class="TextShape"><tspan class="TextParagraph" font-family="Arial" font-size="353px" font-weight="400"><tspan class="TextPosition" x="3947" y="3432"/><tspan class="TextPosition" x="3947" y="3432"><tspan fill="rgb(0,0,0)" stroke="none">Trans. Performed</tspan></tspan></tspan></text>
 <text class="TextShape"><tspan class="TextParagraph" font-family="Arial" font-size="318px" font-weight="400"><tspan class="TextPosition" x="5640" y="7319"/><tspan class="TextPosition" x="5640" y="7319"><tspan fill="rgb(0,0,0)" stroke="none">Number of Processes</tspan></tspan></tspan></text>
 <text class="TextShape" transform="translate(811,6793) rotate(-90) translate(-811,-6793)"><tspan class="TextParagraph" font-family="Arial" font-size="318px" font-weight="400"><tspan class="TextPosition" x="811" y="6793"/><tspan class="TextPosition" x="811" y="6793"><tspan fill="rgb(0,0,0)" stroke="none">References or Transactions per Second</tspan></tspan></tspan></text>
</svg>