<?xml version="1.0" encoding="UTF-8"?>
<!DOCTYPE svg PUBLIC "-//W3C//DTD SVG 1.1//EN" "http://www.w3.org/Graphics/SVG/1.1/DTD/svg11.dtd">
<svg width="135mm" height="79mm" viewBox="0 0 13500 7900" version="1.1" baseProfile="tiny" xmlns="http://www.w3.org/2000/svg" stroke-width="28.222" stroke-linejoin="round" xml:space="preserve">
 <path fill="none" stroke="rgb(179,179,179)" stroke-linejoin="round" d="M 8019,6209 L 3040,6209 3040,1390 12999,1390 12999,6209 8019,6209 Z"/>
 <path fill="none" stroke="rgb(179,179,179)" stroke-linejoin="round" d="M 12999,6208 L 3040,6208"/>
 <path fill="none" stroke="rgb(179,179,179)" stroke-linejoin="round" d="M 12999,5605 L 3040,5605"/>
 <path fill="none" stroke="rgb(179,179,179)" stroke-linejoin="round" d="M 12999,5003 L 3040,5003"/>
 <path fill="none" stroke="rgb(179,179,179)" stroke-linejoin="round" d="M 12999,4400 L 3040,4400"/>
 <path fill="none" stroke="rgb(179,179,179)" stroke-linejoin="round" d="M 12999,3799 L 3040,3799"/>
 <path fill="none" stroke="rgb(179,179,179)" stroke-linejoin="round" d="M 12999,3196 L 3040,3196"/>
 <path fill="none" stroke="rgb(179,179,179)" stroke-linejoin="round" d="M 12999,2594 L 3040,2594"/>
 <path fill="none" stroke="rgb(179,179,179)" stroke-linejoin="round" d="M 12999,1991 L 3040,1991"/>
 <path fill="none" stroke="rgb(179,179,179)" stroke-linejoin="round" d="M 12999,1389 L 3040,1389"/>
 <path fill="none" stroke="rgb(179,179,179)" stroke-linejoin="round" d="M 3040,6358 L 3040,6208"/>
 <path fill="none" stroke="rgb(179,179,179)" stroke-linejoin="round" d="M 3040,6358 L 3040,6208"/>
 <path fill="none" stroke="rgb(179,179,179)" stroke-linejoin="round" d="M 4462,6358 L 4462,6208"/>
 <path fill="none" stroke="rgb(179,179,179)" stroke-linejoin="round" d="M 4462,6358 L 4462,6208"/>
 <path fill="none" stroke="rgb(179,179,179)" stroke-linejoin="round" d="M 5885,6358 L 5885,6208"/>
 <path fill="none" stroke="rgb(179,179,179)" stroke-linejoin="round" d="M 5885,6358 L 5885,6208"/>
 <path fill="none" stroke="rgb(179,179,179)" stroke-linejoin="round" d="M 7307,6358 L 7307,6208"/>
 <path fill="none" stroke="rgb(179,179,179)" stroke-linejoin="round" d="M 7307,6358 L 7307,6208"/>
 <path fill="none" stroke="rgb(179,179,179)" stroke-linejoin="round" d="M 8730,6358 L 8730,6208"/>
 <path fill="none" stroke="rgb(179,179,179)" stroke-linejoin="round" d="M 8730,6358 L 8730,6208"/>
 <path fill="none" stroke="rgb(179,179,179)" stroke-linejoin="round" d="M 10153,6358 L 10153,6208"/>
 <path fill="none" stroke="rgb(179,179,179)" stroke-linejoin="round" d="M 10153,6358 L 10153,6208"/>
 <path fill="none" stroke="rgb(179,179,179)" stroke-linejoin="round" d="M 11576,6358 L 11576,6208"/>
 <path fill="none" stroke="rgb(179,179,179)" stroke-linejoin="round" d="M 11576,6358 L 11576,6208"/>
 <path fill="none" stroke="rgb(179,179,179)" stroke-linejoin="round" d="M 12999,6358 L 12999,6208"/>
 <path fill="none" stroke="rgb(179,179,179)" stroke-linejoin="round" d="M 12999,6358 L 12999,6208"/>
 <path fill="none" stroke="rgb(179,179,179)" stroke-linejoin="round" d="M 3040,6208 L 12999,6208"/>
 <path fill="none" stroke="rgb(179,179,179)" stroke-linejoin="round" d="M 2890,6208 L 3040,6208"/>
 <path fill="none" stroke="rgb(179,179,179)" stroke-linejoin="round" d="M 2890,6208 L 3040,6208"/>
 <path fill="none" stroke="rgb(179,179,179)" stroke-linejoin="round" d="M 2890,5605 L 3040,5605"/>
 <path fill="none" stroke="rgb(179,179,179)" stroke-linejoin="round" d="M 2890,5605 L 3040,5605"/>
 <path fill="none" stroke="rgb(179,179,179)" stroke-linejoin="round" d="M 2890,5003 L 3040,5003"/>
 <path fill="none" stroke="rgb(179,179,179)" stroke-linejoin="round" d="M 2890,5003 L 3040,5003"/>
 <path fill="none" stroke="rgb(179,179,179)" stroke-linejoin="round" d="M 2890,4400 L 3040,4400"/>
 <path fill="none" stroke="rgb(179,179,179)" stroke-linejoin="round" d="M 2890,4400 L 3040,4400"/>
 <path fill="none" stroke="rgb(179,179,179)" stroke-linejoin="round" d="M 2890,3799 L 3040,3799"/>
 <path fill="none" stroke="rgb(179,179,179)" stroke-linejoin="round" d="M 2890,3799 L 3040,3799"/>
 <path fill="none" stroke="rgb(179,179,179)" stroke-linejoin="round" d="M 2890,3196 L 3040,3196"/>
 <path fill="none" stroke="rgb(179,179,179)" stroke-linejoin="round" d="M 2890,3196 L 3040,3196"/>
 <path fill="none" stroke="rgb(179,179,179)" stroke-linejoin="round" d="M 2890,2594 L 3040,2594"/>
 <path fill="none" stroke="rgb(179,179,179)" stroke-linejoin="round" d="M 2890,2594 L 3040,2594"/>
 <path fill="none" stroke="rgb(179,179,179)" stroke-linejoin="round" d="M 2890,1991 L 3040,1991"/>
 <path fill="none" stroke="rgb(179,179,179)" stroke-linejoin="round" d="M 2890,1991 L 3040,1991"/>
 <path fill="none" stroke="rgb(179,179,179)" stroke-linejoin="round" d="M 2890,1389 L 3040,1389"/>
 <path fill="none" stroke="rgb(179,179,179)" stroke-linejoin="round" d="M 2890,1389 L 3040,1389"/>
 <path fill="none" stroke="rgb(179,179,179)" stroke-linejoin="round" d="M 3040,6208 L 3040,1389"/>
 <path fill="none" stroke="rgb(255,66,14)" stroke-width="80" stroke-linejoin="round" d="M 3040,5857 L 4462,5532 5885,4922 7307,3755 8730,2049 10153,1783 11576,1982 12999,2067"/>
 <path fill="rgb(255,66,14)" stroke="none" d="M 2915,5857 L 3040,5982 3165,5857 3040,5732 2915,5857 Z"/>
 <path fill="none" stroke="rgb(255,66,14)" stroke-linejoin="round" d="M 2915,5857 L 3040,5982 3165,5857 3040,5732 2915,5857 Z"/>
 <path fill="rgb(255,66,14)" stroke="none" d="M 4337,5532 L 4462,5657 4587,5532 4462,5407 4337,5532 Z"/>
 <path fill="none" stroke="rgb(255,66,14)" stroke-linejoin="round" d="M 4337,5532 L 4462,5657 4587,5532 4462,5407 4337,5532 Z"/>
 <path fill="rgb(255,66,14)" stroke="none" d="M 5760,4922 L 5885,5047 6010,4922 5885,4797 5760,4922 Z"/>
 <path fill="none" stroke="rgb(255,66,14)" stroke-linejoin="round" d="M 5760,4922 L 5885,5047 6010,4922 5885,4797 5760,4922 Z"/>
 <path fill="rgb(255,66,14)" stroke="none" d="M 7182,3755 L 7307,3880 7432,3755 7307,3630 7182,3755 Z"/>
 <path fill="none" stroke="rgb(255,66,14)" stroke-linejoin="round" d="M 7182,3755 L 7307,3880 7432,3755 7307,3630 7182,3755 Z"/>
 <path fill="rgb(255,66,14)" stroke="none" d="M 8605,2049 L 8730,2174 8855,2049 8730,1924 8605,2049 Z"/>
 <path fill="none" stroke="rgb(255,66,14)" stroke-linejoin="round" d="M 8605,2049 L 8730,2174 8855,2049 8730,1924 8605,2049 Z"/>
 <path fill="rgb(255,66,14)" stroke="none" d="M 10028,1783 L 10153,1908 10278,1783 10153,1658 10028,1783 Z"/>
 <path fill="none" stroke="rgb(255,66,14)" stroke-linejoin="round" d="M 10028,1783 L 10153,1908 10278,1783 10153,1658 10028,1783 Z"/>
 <path fill="rgb(255,66,14)" stroke="none" d="M 11451,1982 L 11576,2107 11701,1982 11576,1857 11451,1982 Z"/>
 <path fill="none" stroke="rgb(255,66,14)" stroke-linejoin="round" d="M 11451,1982 L 11576,2107 11701,1982 11576,1857 11451,1982 Z"/>
 <path fill="rgb(255,66,14)" stroke="none" d="M 12874,2067 L 12999,2192 13124,2067 12999,1942 12874,2067 Z"/>
 <path fill="none" stroke="rgb(255,66,14)" stroke-linejoin="round" d="M 12874,2067 L 12999,2192 13124,2067 12999,1942 12874,2067 Z"/>
 <path fill="none" stroke="rgb(255,211,32)" stroke-width="80" stroke-linejoin="round" d="M 3040,6120 L 4462,6038 5885,5887 7307,5593 8730,5169 10153,5098 11576,5150 12999,5171"/>
 <path fill="rgb(255,211,32)" stroke="none" d="M 2915,5995 L 3040,6245 3165,5995 2915,5995 Z"/>
 <path fill="none" stroke="rgb(255,211,32)" stroke-linejoin="round" d="M 2915,5995 L 3040,6245 3165,5995 2915,5995 Z"/>
 <path fill="rgb(255,211,32)" stroke="none" d="M 4337,5913 L 4462,6163 4587,5913 4337,5913 Z"/>
 <path fill="none" stroke="rgb(255,211,32)" stroke-linejoin="round" d="M 4337,5913 L 4462,6163 4587,5913 4337,5913 Z"/>
 <path fill="rgb(255,211,32)" stroke="none" d="M 5760,5762 L 5885,6012 6010,5762 5760,5762 Z"/>
 <path fill="none" stroke="rgb(255,211,32)" stroke-linejoin="round" d="M 5760,5762 L 5885,6012 6010,5762 5760,5762 Z"/>
 <path fill="rgb(255,211,32)" stroke="none" d="M 7182,5468 L 7307,5718 7432,5468 7182,5468 Z"/>
 <path fill="none" stroke="rgb(255,211,32)" stroke-linejoin="round" d="M 7182,5468 L 7307,5718 7432,5468 7182,5468 Z"/>
 <path fill="rgb(255,211,32)" stroke="none" d="M 8605,5044 L 8730,5294 8855,5044 8605,5044 Z"/>
 <path fill="none" stroke="rgb(255,211,32)" stroke-linejoin="round" d="M 8605,5044 L 8730,5294 8855,5044 8605,5044 Z"/>
 <path fill="rgb(255,211,32)" stroke="none" d="M 10028,4973 L 10153,5223 10278,4973 10028,4973 Z"/>
 <path fill="none" stroke="rgb(255,211,32)" stroke-linejoin="round" d="M 10028,4973 L 10153,5223 10278,4973 10028,4973 Z"/>
 <path fill="rgb(255,211,32)" stroke="none" d="M 11451,5025 L 11576,5275 11701,5025 11451,5025 Z"/>
 <path fill="none" stroke="rgb(255,211,32)" stroke-linejoin="round" d="M 11451,5025 L 11576,5275 11701,5025 11451,5025 Z"/>
 <path fill="rgb(255,211,32)" stroke="none" d="M 12874,5046 L 12999,5296 13124,5046 12874,5046 Z"/>
 <path fill="none" stroke="rgb(255,211,32)" stroke-linejoin="round" d="M 12874,5046 L 12999,5296 13124,5046 12874,5046 Z"/>
 <path fill="none" stroke="rgb(87,157,28)" stroke-width="80" stroke-linejoin="round" d="M 3040,6067 L 4462,5937 5885,5690 7307,5216 8730,4516 10153,4402 11576,4486 12999,4516"/>
 <path fill="rgb(87,157,28)" stroke="none" d="M 2915,6192 L 3165,6192 3040,5942 2915,6192 Z"/>
 <path fill="none" stroke="rgb(87,157,28)" stroke-linejoin="round" d="M 2915,6192 L 3165,6192 3040,5942 2915,6192 Z"/>
 <path fill="rgb(87,157,28)" stroke="none" d="M 4337,6062 L 4587,6062 4462,5812 4337,6062 Z"/>
 <path fill="none" stroke="rgb(87,157,28)" stroke-linejoin="round" d="M 4337,6062 L 4587,6062 4462,5812 4337,6062 Z"/>
 <path fill="rgb(87,157,28)" stroke="none" d="M 5760,5815 L 6010,5815 5885,5565 5760,5815 Z"/>
 <path fill="none" stroke="rgb(87,157,28)" stroke-linejoin="round" d="M 5760,5815 L 6010,5815 5885,5565 5760,5815 Z"/>
 <path fill="rgb(87,157,28)" stroke="none" d="M 7182,5341 L 7432,5341 7307,5091 7182,5341 Z"/>
 <path fill="none" stroke="rgb(87,157,28)" stroke-linejoin="round" d="M 7182,5341 L 7432,5341 7307,5091 7182,5341 Z"/>
 <path fill="rgb(87,157,28)" stroke="none" d="M 8605,4641 L 8855,4641 8730,4391 8605,4641 Z"/>
 <path fill="none" stroke="rgb(87,157,28)" stroke-linejoin="round" d="M 8605,4641 L 8855,4641 8730,4391 8605,4641 Z"/>
 <path fill="rgb(87,157,28)" stroke="none" d="M 10028,4527 L 10278,4527 10153,4277 10028,4527 Z"/>
 <path fill="none" stroke="rgb(87,157,28)" stroke-linejoin="round" d="M 10028,4527 L 10278,4527 10153,4277 10028,4527 Z"/>
 <path fill="rgb(87,157,28)" stroke="none" d="M 11451,4611 L 11701,4611 11576,4361 11451,4611 Z"/>
 <path fill="none" stroke="rgb(87,157,28)" stroke-linejoin="round" d="M 11451,4611 L 11701,4611 11576,4361 11451,4611 Z"/>
 <path fill="rgb(87,157,28)" stroke="none" d="M 12874,4641 L 13124,4641 12999,4391 12874,4641 Z"/>
 <path fill="none" stroke="rgb(87,157,28)" stroke-linejoin="round" d="M 12874,4641 L 13124,4641 12999,4391 12874,4641 Z"/>
 <text class="TextShape"><tspan class="TextParagraph" font-family="Liberation Sans" font-size="353px" font-weight="400"><tspan class="TextPosition" x="2947" y="6776"/><tspan class="TextPosition" x="2947" y="6776"><tspan fill="rgb(0,0,0)" stroke="none">1</tspan></tspan></tspan></text>
 <text class="TextShape"><tspan class="TextParagraph" font-family="Liberation Sans" font-size="353px" font-weight="400"><tspan class="TextPosition" x="4369" y="6776"/><tspan class="TextPosition" x="4369" y="6776"><tspan fill="rgb(0,0,0)" stroke="none">2</tspan></tspan></tspan></text>
 <text class="TextShape"><tspan class="TextParagraph" font-family="Liberation Sans" font-size="353px" font-weight="400"><tspan class="TextPosition" x="5792" y="6776"/><tspan class="TextPosition" x="5792" y="6776"><tspan fill="rgb(0,0,0)" stroke="none">4</tspan></tspan></tspan></text>
 <text class="TextShape"><tspan class="TextParagraph" font-family="Liberation Sans" font-size="353px" font-weight="400"><tspan class="TextPosition" x="7215" y="6776"/><tspan class="TextPosition" x="7215" y="6776"><tspan fill="rgb(0,0,0)" stroke="none">8</tspan></tspan></tspan></text>
 <text class="TextShape"><tspan class="TextParagraph" font-family="Liberation Sans" font-size="353px" font-weight="400"><tspan class="TextPosition" x="8546" y="6776"/><tspan class="TextPosition" x="8546" y="6776"><tspan fill="rgb(0,0,0)" stroke="none">16</tspan></tspan></tspan></text>
 <text class="TextShape"><tspan class="TextParagraph" font-family="Liberation Sans" font-size="353px" font-weight="400"><tspan class="TextPosition" x="9969" y="6776"/><tspan class="TextPosition" x="9969" y="6776"><tspan fill="rgb(0,0,0)" stroke="none">24</tspan></tspan></tspan></text>
 <text class="TextShape"><tspan class="TextParagraph" font-family="Liberation Sans" font-size="353px" font-weight="400"><tspan class="TextPosition" x="11392" y="6776"/><tspan class="TextPosition" x="11392" y="6776"><tspan fill="rgb(0,0,0)" stroke="none">32</tspan></tspan></tspan></text>
 <text class="TextShape"><tspan class="TextParagraph" font-family="Liberation Sans" font-size="353px" font-weight="400"><tspan class="TextPosition" x="12815" y="6776"/><tspan class="TextPosition" x="12815" y="6776"><tspan fill="rgb(0,0,0)" stroke="none">36</tspan></tspan></tspan></text>
 <text class="TextShape"><tspan class="TextParagraph" font-family="Liberation Sans" font-size="353px" font-weight="400"><tspan class="TextPosition" x="2605" y="6342"/><tspan class="TextPosition" x="2605" y="6342"><tspan fill="rgb(0,0,0)" stroke="none">0</tspan></tspan></tspan></text>
 <text class="TextShape"><tspan class="TextParagraph" font-family="Liberation Sans" font-size="353px" font-weight="400"><tspan class="TextPosition" x="1520" y="5739"/><tspan class="TextPosition" x="1520" y="5739"><tspan fill="rgb(0,0,0)" stroke="none">500,000</tspan></tspan></tspan></text>
 <text class="TextShape"><tspan class="TextParagraph" font-family="Liberation Sans" font-size="353px" font-weight="400"><tspan class="TextPosition" x="1229" y="5137"/><tspan class="TextPosition" x="1229" y="5137"><tspan fill="rgb(0,0,0)" stroke="none">1,000,000</tspan></tspan></tspan></text>
 <text class="TextShape"><tspan class="TextParagraph" font-family="Liberation Sans" font-size="353px" font-weight="400"><tspan class="TextPosition" x="1229" y="4534"/><tspan class="TextPosition" x="1229" y="4534"><tspan fill="rgb(0,0,0)" stroke="none">1,500,000</tspan></tspan></tspan></text>
 <text class="TextShape"><tspan class="TextParagraph" font-family="Liberation Sans" font-size="353px" font-weight="400"><tspan class="TextPosition" x="1229" y="3932"/><tspan class="TextPosition" x="1229" y="3932"><tspan fill="rgb(0,0,0)" stroke="none">2,000,000</tspan></tspan></tspan></text>
 <text class="TextShape"><tspan class="TextParagraph" font-family="Liberation Sans" font-size="353px" font-weight="400"><tspan class="TextPosition" x="1229" y="3329"/><tspan class="TextPosition" x="1229" y="3329"><tspan fill="rgb(0,0,0)" stroke="none">2,500,000</tspan></tspan></tspan></text>
 <text class="TextShape"><tspan class="TextParagraph" font-family="Liberation Sans" font-size="353px" font-weight="400"><tspan class="TextPosition" x="1229" y="2727"/><tspan class="TextPosition" x="1229" y="2727"><tspan fill="rgb(0,0,0)" stroke="none">3,000,000</tspan></tspan></tspan></text>
 <text class="TextShape"><tspan class="TextParagraph" font-family="Liberation Sans" font-size="353px" font-weight="400"><tspan class="TextPosition" x="1229" y="2124"/><tspan class="TextPosition" x="1229" y="2124"><tspan fill="rgb(0,0,0)" stroke="none">3,500,000</tspan></tspan></tspan></text>
 <text class="TextShape"><tspan class="TextParagraph" font-family="Liberation Sans" font-size="353px" font-weight="400"><tspan class="TextPosition" x="1229" y="1522"/><tspan class="TextPosition" x="1229" y="1522"><tspan fill="rgb(0,0,0)" stroke="none">4,000,000</tspan></tspan></tspan></text>
 <text class="TextShape"><tspan class="TextParagraph" font-family="Arial" font-size="459px" font-weight="400"><tspan class="TextPosition" x="2653" y="828"/><tspan class="TextPosition" x="2653" y="828"><tspan fill="rgb(0,0,0)" stroke="none">Transactions, no Work Queue (Integers)</tspan></tspan></tspan></text>
 <path fill="none" stroke="rgb(255,66,14)" stroke-width="80" stroke-linejoin="round" d="M 3438,1786 L 4238,1786"/>
 <path fill="rgb(255,66,14)" stroke="none" d="M 3732,1786 L 3838,1892 3943,1786 3838,1681 3732,1786 Z"/>
 <path fill="none" stroke="rgb(255,66,14)" stroke-linejoin="round" d="M 3732,1786 L 3838,1892 3943,1786 3838,1681 3732,1786 Z"/>
 <path fill="none" stroke="rgb(255,211,32)" stroke-width="80" stroke-linejoin="round" d="M 3438,2328 L 4238,2328"/>
 <path fill="rgb(255,211,32)" stroke="none" d="M 3732,2223 L 3838,2434 3943,2223 3732,2223 Z"/>
 <path fill="none" stroke="rgb(255,211,32)" stroke-linejoin="round" d="M 3732,2223 L 3838,2434 3943,2223 3732,2223 Z"/>
 <path fill="none" stroke="rgb(87,157,28)" stroke-width="80" stroke-linejoin="round" d="M 3438,2870 L 4238,2870"/>
 <path fill="rgb(87,157,28)" stroke="none" d="M 3732,2976 L 3943,2976 3838,2765 3732,2976 Z"/>
 <path fill="none" stroke="rgb(87,157,28)" stroke-linejoin="round" d="M 3732,2976 L 3943,2976 3838,2765 3732,2976 Z"/>
 <text class="TextShape"><tspan class="TextParagraph" font-family="Arial" font-size="353px" font-weight="400"><tspan class="TextPosition" x="4338" y="1919"/><tspan class="TextPosition" x="4338" y="1919"><tspan fill="rgb(0,0,0)" stroke="none">Elem. Ref&apos;d.</tspan></tspan></tspan></text>
 <text class="TextShape"><tspan class="TextParagraph" font-family="Arial" font-size="353px" font-weight="400"><tspan class="TextPosition" x="4338" y="2461"/><tspan class="TextPosition" x="4338" y="2461"><tspan fill="rgb(0,0,0)" stroke="none">Table Updates</tspan></tspan></tspan></text>
 <text class="TextShape"><tspan class="TextParagraph" font-family="Arial" font-size="353px" font-weight="400"><tspan class="TextPosition" x="4338" y="3003"/><tspan class="TextPosition" x="4338" y="3003"><tspan fill="rgb(0,0,0)" stroke="none">Trans. Performed</tspan></tspan></tspan></text>
 <text class="TextShape"><tspan class="TextParagraph" font-family="Arial" font-size="318px" font-weight="400"><tspan class="TextPosition" x="5685" y="7349"/><tspan class="TextPosition" x="5685" y="7349"><tspan fill="rgb(0,0,0)" stroke="none">Number of Processes</tspan></tspan></tspan></text>
 <text class="TextShape" transform="translate(811,6808) rotate(-90) translate(-811,-6808)"><tspan class="TextParagraph" font-family="Arial" font-size="318px" font-weight="400"><tspan class="TextPosition" x="811" y="6808"/><tspan class="TextPosition" x="811" y="6808"><tspan fill="rgb(0,0,0)" stroke="none">References or Transactions per Second</tspan></tspan></tspan></text>
</svg>