<?xml version="1.0" encoding="UTF-8"?>
<!DOCTYPE svg PUBLIC "-//W3C//DTD SVG 1.1//EN" "http://www.w3.org/Graphics/SVG/1.1/DTD/svg11.dtd">
<svg width="132mm" height="77mm" viewBox="0 0 13200 7700" version="1.1" baseProfile="tiny" xmlns="http://www.w3.org/2000/svg" stroke-width="28.222" stroke-linejoin="round" xml:space="preserve">
 <path fill="none" stroke="rgb(179,179,179)" stroke-linejoin="round" d="M 7912,6032 L 3035,6032 3035,1382 12790,1382 12790,6032 7912,6032 Z"/>
 <path fill="none" stroke="rgb(179,179,179)" stroke-linejoin="round" d="M 12790,6031 L 3035,6031"/>
 <path fill="none" stroke="rgb(179,179,179)" stroke-linejoin="round" d="M 12790,5255 L 3035,5255"/>
 <path fill="none" stroke="rgb(179,179,179)" stroke-linejoin="round" d="M 12790,4480 L 3035,4480"/>
 <path fill="none" stroke="rgb(179,179,179)" stroke-linejoin="round" d="M 12790,3706 L 3035,3706"/>
 <path fill="none" stroke="rgb(179,179,179)" stroke-linejoin="round" d="M 12790,2931 L 3035,2931"/>
 <path fill="none" stroke="rgb(179,179,179)" stroke-linejoin="round" d="M 12790,2156 L 3035,2156"/>
 <path fill="none" stroke="rgb(179,179,179)" stroke-linejoin="round" d="M 12790,1381 L 3035,1381"/>
 <path fill="none" stroke="rgb(179,179,179)" stroke-linejoin="round" d="M 3035,6181 L 3035,6031"/>
 <path fill="none" stroke="rgb(179,179,179)" stroke-linejoin="round" d="M 3035,6181 L 3035,6031"/>
 <path fill="none" stroke="rgb(179,179,179)" stroke-linejoin="round" d="M 4428,6181 L 4428,6031"/>
 <path fill="none" stroke="rgb(179,179,179)" stroke-linejoin="round" d="M 4428,6181 L 4428,6031"/>
 <path fill="none" stroke="rgb(179,179,179)" stroke-linejoin="round" d="M 5822,6181 L 5822,6031"/>
 <path fill="none" stroke="rgb(179,179,179)" stroke-linejoin="round" d="M 5822,6181 L 5822,6031"/>
 <path fill="none" stroke="rgb(179,179,179)" stroke-linejoin="round" d="M 7215,6181 L 7215,6031"/>
 <path fill="none" stroke="rgb(179,179,179)" stroke-linejoin="round" d="M 7215,6181 L 7215,6031"/>
 <path fill="none" stroke="rgb(179,179,179)" stroke-linejoin="round" d="M 8608,6181 L 8608,6031"/>
 <path fill="none" stroke="rgb(179,179,179)" stroke-linejoin="round" d="M 8608,6181 L 8608,6031"/>
 <path fill="none" stroke="rgb(179,179,179)" stroke-linejoin="round" d="M 10002,6181 L 10002,6031"/>
 <path fill="none" stroke="rgb(179,179,179)" stroke-linejoin="round" d="M 10002,6181 L 10002,6031"/>
 <path fill="none" stroke="rgb(179,179,179)" stroke-linejoin="round" d="M 11396,6181 L 11396,6031"/>
 <path fill="none" stroke="rgb(179,179,179)" stroke-linejoin="round" d="M 11396,6181 L 11396,6031"/>
 <path fill="none" stroke="rgb(179,179,179)" stroke-linejoin="round" d="M 12790,6181 L 12790,6031"/>
 <path fill="none" stroke="rgb(179,179,179)" stroke-linejoin="round" d="M 12790,6181 L 12790,6031"/>
 <path fill="none" stroke="rgb(179,179,179)" stroke-linejoin="round" d="M 3035,6031 L 12790,6031"/>
 <path fill="none" stroke="rgb(179,179,179)" stroke-linejoin="round" d="M 2885,6031 L 3035,6031"/>
 <path fill="none" stroke="rgb(179,179,179)" stroke-linejoin="round" d="M 2885,6031 L 3035,6031"/>
 <path fill="none" stroke="rgb(179,179,179)" stroke-linejoin="round" d="M 2885,5255 L 3035,5255"/>
 <path fill="none" stroke="rgb(179,179,179)" stroke-linejoin="round" d="M 2885,5255 L 3035,5255"/>
 <path fill="none" stroke="rgb(179,179,179)" stroke-linejoin="round" d="M 2885,4480 L 3035,4480"/>
 <path fill="none" stroke="rgb(179,179,179)" stroke-linejoin="round" d="M 2885,4480 L 3035,4480"/>
 <path fill="none" stroke="rgb(179,179,179)" stroke-linejoin="round" d="M 2885,3706 L 3035,3706"/>
 <path fill="none" stroke="rgb(179,179,179)" stroke-linejoin="round" d="M 2885,3706 L 3035,3706"/>
 <path fill="none" stroke="rgb(179,179,179)" stroke-linejoin="round" d="M 2885,2931 L 3035,2931"/>
 <path fill="none" stroke="rgb(179,179,179)" stroke-linejoin="round" d="M 2885,2931 L 3035,2931"/>
 <path fill="none" stroke="rgb(179,179,179)" stroke-linejoin="round" d="M 2885,2156 L 3035,2156"/>
 <path fill="none" stroke="rgb(179,179,179)" stroke-linejoin="round" d="M 2885,2156 L 3035,2156"/>
 <path fill="none" stroke="rgb(179,179,179)" stroke-linejoin="round" d="M 2885,1381 L 3035,1381"/>
 <path fill="none" stroke="rgb(179,179,179)" stroke-linejoin="round" d="M 2885,1381 L 3035,1381"/>
 <path fill="none" stroke="rgb(179,179,179)" stroke-linejoin="round" d="M 3035,6031 L 3035,1381"/>
 <path fill="none" stroke="rgb(255,66,14)" stroke-width="80" stroke-linejoin="round" d="M 3035,5729 L 4428,5436 5822,4743 7215,3673 8608,2288 10002,2165 11396,1894 12790,1777"/>
 <path fill="rgb(255,66,14)" stroke="none" d="M 2910,5729 L 3035,5854 3160,5729 3035,5604 2910,5729 Z"/>
 <path fill="none" stroke="rgb(255,66,14)" stroke-linejoin="round" d="M 2910,5729 L 3035,5854 3160,5729 3035,5604 2910,5729 Z"/>
 <path fill="rgb(255,66,14)" stroke="none" d="M 4303,5436 L 4428,5561 4553,5436 4428,5311 4303,5436 Z"/>
 <path fill="none" stroke="rgb(255,66,14)" stroke-linejoin="round" d="M 4303,5436 L 4428,5561 4553,5436 4428,5311 4303,5436 Z"/>
 <path fill="rgb(255,66,14)" stroke="none" d="M 5697,4743 L 5822,4868 5947,4743 5822,4618 5697,4743 Z"/>
 <path fill="none" stroke="rgb(255,66,14)" stroke-linejoin="round" d="M 5697,4743 L 5822,4868 5947,4743 5822,4618 5697,4743 Z"/>
 <path fill="rgb(255,66,14)" stroke="none" d="M 7090,3673 L 7215,3798 7340,3673 7215,3548 7090,3673 Z"/>
 <path fill="none" stroke="rgb(255,66,14)" stroke-linejoin="round" d="M 7090,3673 L 7215,3798 7340,3673 7215,3548 7090,3673 Z"/>
 <path fill="rgb(255,66,14)" stroke="none" d="M 8483,2288 L 8608,2413 8733,2288 8608,2163 8483,2288 Z"/>
 <path fill="none" stroke="rgb(255,66,14)" stroke-linejoin="round" d="M 8483,2288 L 8608,2413 8733,2288 8608,2163 8483,2288 Z"/>
 <path fill="rgb(255,66,14)" stroke="none" d="M 9877,2165 L 10002,2290 10127,2165 10002,2040 9877,2165 Z"/>
 <path fill="none" stroke="rgb(255,66,14)" stroke-linejoin="round" d="M 9877,2165 L 10002,2290 10127,2165 10002,2040 9877,2165 Z"/>
 <path fill="rgb(255,66,14)" stroke="none" d="M 11271,1894 L 11396,2019 11521,1894 11396,1769 11271,1894 Z"/>
 <path fill="none" stroke="rgb(255,66,14)" stroke-linejoin="round" d="M 11271,1894 L 11396,2019 11521,1894 11396,1769 11271,1894 Z"/>
 <path fill="rgb(255,66,14)" stroke="none" d="M 12665,1777 L 12790,1902 12915,1777 12790,1652 12665,1777 Z"/>
 <path fill="none" stroke="rgb(255,66,14)" stroke-linejoin="round" d="M 12665,1777 L 12790,1902 12915,1777 12790,1652 12665,1777 Z"/>
 <path fill="none" stroke="rgb(255,211,32)" stroke-width="80" stroke-linejoin="round" d="M 3035,5955 L 4428,5882 5822,5709 7215,5441 8608,5095 10002,5064 11396,4996 12790,4967"/>
 <path fill="rgb(255,211,32)" stroke="none" d="M 2910,5830 L 3035,6080 3160,5830 2910,5830 Z"/>
 <path fill="none" stroke="rgb(255,211,32)" stroke-linejoin="round" d="M 2910,5830 L 3035,6080 3160,5830 2910,5830 Z"/>
 <path fill="rgb(255,211,32)" stroke="none" d="M 4303,5757 L 4428,6007 4553,5757 4303,5757 Z"/>
 <path fill="none" stroke="rgb(255,211,32)" stroke-linejoin="round" d="M 4303,5757 L 4428,6007 4553,5757 4303,5757 Z"/>
 <path fill="rgb(255,211,32)" stroke="none" d="M 5697,5584 L 5822,5834 5947,5584 5697,5584 Z"/>
 <path fill="none" stroke="rgb(255,211,32)" stroke-linejoin="round" d="M 5697,5584 L 5822,5834 5947,5584 5697,5584 Z"/>
 <path fill="rgb(255,211,32)" stroke="none" d="M 7090,5316 L 7215,5566 7340,5316 7090,5316 Z"/>
 <path fill="none" stroke="rgb(255,211,32)" stroke-linejoin="round" d="M 7090,5316 L 7215,5566 7340,5316 7090,5316 Z"/>
 <path fill="rgb(255,211,32)" stroke="none" d="M 8483,4970 L 8608,5220 8733,4970 8483,4970 Z"/>
 <path fill="none" stroke="rgb(255,211,32)" stroke-linejoin="round" d="M 8483,4970 L 8608,5220 8733,4970 8483,4970 Z"/>
 <path fill="rgb(255,211,32)" stroke="none" d="M 9877,4939 L 10002,5189 10127,4939 9877,4939 Z"/>
 <path fill="none" stroke="rgb(255,211,32)" stroke-linejoin="round" d="M 9877,4939 L 10002,5189 10127,4939 9877,4939 Z"/>
 <path fill="rgb(255,211,32)" stroke="none" d="M 11271,4871 L 11396,5121 11521,4871 11271,4871 Z"/>
 <path fill="none" stroke="rgb(255,211,32)" stroke-linejoin="round" d="M 11271,4871 L 11396,5121 11521,4871 11271,4871 Z"/>
 <path fill="rgb(255,211,32)" stroke="none" d="M 12665,4842 L 12790,5092 12915,4842 12665,4842 Z"/>
 <path fill="none" stroke="rgb(255,211,32)" stroke-linejoin="round" d="M 12665,4842 L 12790,5092 12915,4842 12665,4842 Z"/>
 <path fill="none" stroke="rgb(87,157,28)" stroke-width="80" stroke-linejoin="round" d="M 3035,5910 L 4428,5793 5822,5515 7215,5087 8608,4531 10002,4482 11396,4373 12790,4326"/>
 <path fill="rgb(87,157,28)" stroke="none" d="M 2910,6035 L 3160,6035 3035,5785 2910,6035 Z"/>
 <path fill="none" stroke="rgb(87,157,28)" stroke-linejoin="round" d="M 2910,6035 L 3160,6035 3035,5785 2910,6035 Z"/>
 <path fill="rgb(87,157,28)" stroke="none" d="M 4303,5918 L 4553,5918 4428,5668 4303,5918 Z"/>
 <path fill="none" stroke="rgb(87,157,28)" stroke-linejoin="round" d="M 4303,5918 L 4553,5918 4428,5668 4303,5918 Z"/>
 <path fill="rgb(87,157,28)" stroke="none" d="M 5697,5640 L 5947,5640 5822,5390 5697,5640 Z"/>
 <path fill="none" stroke="rgb(87,157,28)" stroke-linejoin="round" d="M 5697,5640 L 5947,5640 5822,5390 5697,5640 Z"/>
 <path fill="rgb(87,157,28)" stroke="none" d="M 7090,5212 L 7340,5212 7215,4962 7090,5212 Z"/>
 <path fill="none" stroke="rgb(87,157,28)" stroke-linejoin="round" d="M 7090,5212 L 7340,5212 7215,4962 7090,5212 Z"/>
 <path fill="rgb(87,157,28)" stroke="none" d="M 8483,4656 L 8733,4656 8608,4406 8483,4656 Z"/>
 <path fill="none" stroke="rgb(87,157,28)" stroke-linejoin="round" d="M 8483,4656 L 8733,4656 8608,4406 8483,4656 Z"/>
 <path fill="rgb(87,157,28)" stroke="none" d="M 9877,4607 L 10127,4607 10002,4357 9877,4607 Z"/>
 <path fill="none" stroke="rgb(87,157,28)" stroke-linejoin="round" d="M 9877,4607 L 10127,4607 10002,4357 9877,4607 Z"/>
 <path fill="rgb(87,157,28)" stroke="none" d="M 11271,4498 L 11521,4498 11396,4248 11271,4498 Z"/>
 <path fill="none" stroke="rgb(87,157,28)" stroke-linejoin="round" d="M 11271,4498 L 11521,4498 11396,4248 11271,4498 Z"/>
 <path fill="rgb(87,157,28)" stroke="none" d="M 12665,4451 L 12915,4451 12790,4201 12665,4451 Z"/>
 <path fill="none" stroke="rgb(87,157,28)" stroke-linejoin="round" d="M 12665,4451 L 12915,4451 12790,4201 12665,4451 Z"/>
 <text class="TextShape"><tspan class="TextParagraph" font-family="Liberation Sans" font-size="353px" font-weight="400"><tspan class="TextPosition" x="2942" y="6599"/><tspan class="TextPosition" x="2942" y="6599"><tspan fill="rgb(0,0,0)" stroke="none">1</tspan></tspan></tspan></text>
 <text class="TextShape"><tspan class="TextParagraph" font-family="Liberation Sans" font-size="353px" font-weight="400"><tspan class="TextPosition" x="4335" y="6599"/><tspan class="TextPosition" x="4335" y="6599"><tspan fill="rgb(0,0,0)" stroke="none">2</tspan></tspan></tspan></text>
 <text class="TextShape"><tspan class="TextParagraph" font-family="Liberation Sans" font-size="353px" font-weight="400"><tspan class="TextPosition" x="5729" y="6599"/><tspan class="TextPosition" x="5729" y="6599"><tspan fill="rgb(0,0,0)" stroke="none">4</tspan></tspan></tspan></text>
 <text class="TextShape"><tspan class="TextParagraph" font-family="Liberation Sans" font-size="353px" font-weight="400"><tspan class="TextPosition" x="7123" y="6599"/><tspan class="TextPosition" x="7123" y="6599"><tspan fill="rgb(0,0,0)" stroke="none">8</tspan></tspan></tspan></text>
 <text class="TextShape"><tspan class="TextParagraph" font-family="Liberation Sans" font-size="353px" font-weight="400"><tspan class="TextPosition" x="8424" y="6599"/><tspan class="TextPosition" x="8424" y="6599"><tspan fill="rgb(0,0,0)" stroke="none">16</tspan></tspan></tspan></text>
 <text class="TextShape"><tspan class="TextParagraph" font-family="Liberation Sans" font-size="353px" font-weight="400"><tspan class="TextPosition" x="9818" y="6599"/><tspan class="TextPosition" x="9818" y="6599"><tspan fill="rgb(0,0,0)" stroke="none">24</tspan></tspan></tspan></text>
 <text class="TextShape"><tspan class="TextParagraph" font-family="Liberation Sans" font-size="353px" font-weight="400"><tspan class="TextPosition" x="11212" y="6599"/><tspan class="TextPosition" x="11212" y="6599"><tspan fill="rgb(0,0,0)" stroke="none">32</tspan></tspan></tspan></text>
 <text class="TextShape"><tspan class="TextParagraph" font-family="Liberation Sans" font-size="353px" font-weight="400"><tspan class="TextPosition" x="12606" y="6599"/><tspan class="TextPosition" x="12606" y="6599"><tspan fill="rgb(0,0,0)" stroke="none">36</tspan></tspan></tspan></text>
 <text class="TextShape"><tspan class="TextParagraph" font-family="Liberation Sans" font-size="353px" font-weight="400"><tspan class="TextPosition" x="2600" y="6165"/><tspan class="TextPosition" x="2600" y="6165"><tspan fill="rgb(0,0,0)" stroke="none">0</tspan></tspan></tspan></text>
 <text class="TextShape"><tspan class="TextParagraph" font-family="Liberation Sans" font-size="353px" font-weight="400"><tspan class="TextPosition" x="1515" y="5389"/><tspan class="TextPosition" x="1515" y="5389"><tspan fill="rgb(0,0,0)" stroke="none">500,000</tspan></tspan></tspan></text>
 <text class="TextShape"><tspan class="TextParagraph" font-family="Liberation Sans" font-size="353px" font-weight="400"><tspan class="TextPosition" x="1224" y="4614"/><tspan class="TextPosition" x="1224" y="4614"><tspan fill="rgb(0,0,0)" stroke="none">1,000,000</tspan></tspan></tspan></text>
 <text class="TextShape"><tspan class="TextParagraph" font-family="Liberation Sans" font-size="353px" font-weight="400"><tspan class="TextPosition" x="1224" y="3839"/><tspan class="TextPosition" x="1224" y="3839"><tspan fill="rgb(0,0,0)" stroke="none">1,500,000</tspan></tspan></tspan></text>
 <text class="TextShape"><tspan class="TextParagraph" font-family="Liberation Sans" font-size="353px" font-weight="400"><tspan class="TextPosition" x="1224" y="3064"/><tspan class="TextPosition" x="1224" y="3064"><tspan fill="rgb(0,0,0)" stroke="none">2,000,000</tspan></tspan></tspan></text>
 <text class="TextShape"><tspan class="TextParagraph" font-family="Liberation Sans" font-size="353px" font-weight="400"><tspan class="TextPosition" x="1224" y="2289"/><tspan class="TextPosition" x="1224" y="2289"><tspan fill="rgb(0,0,0)" stroke="none">2,500,000</tspan></tspan></tspan></text>
 <text class="TextShape"><tspan class="TextParagraph" font-family="Liberation Sans" font-size="353px" font-weight="400"><tspan class="TextPosition" x="1224" y="1514"/><tspan class="TextPosition" x="1224" y="1514"><tspan fill="rgb(0,0,0)" stroke="none">3,000,000</tspan></tspan></tspan></text>
 <text class="TextShape"><tspan class="TextParagraph" font-family="Arial" font-size="459px" font-weight="400"><tspan class="TextPosition" x="2665" y="824"/><tspan class="TextPosition" x="2665" y="824"><tspan fill="rgb(0,0,0)" stroke="none">Transactions, no Work Queue (Strings)</tspan></tspan></tspan></text>
 <path fill="none" stroke="rgb(255,66,14)" stroke-width="80" stroke-linejoin="round" d="M 3419,1972 L 4219,1972"/>
 <path fill="rgb(255,66,14)" stroke="none" d="M 3713,1972 L 3819,2078 3924,1972 3819,1867 3713,1972 Z"/>
 <path fill="none" stroke="rgb(255,66,14)" stroke-linejoin="round" d="M 3713,1972 L 3819,2078 3924,1972 3819,1867 3713,1972 Z"/>
 <path fill="none" stroke="rgb(255,211,32)" stroke-width="80" stroke-linejoin="round" d="M 3419,2585 L 4219,2585"/>
 <path fill="rgb(255,211,32)" stroke="none" d="M 3713,2480 L 3819,2691 3924,2480 3713,2480 Z"/>
 <path fill="none" stroke="rgb(255,211,32)" stroke-linejoin="round" d="M 3713,2480 L 3819,2691 3924,2480 3713,2480 Z"/>
 <path fill="none" stroke="rgb(87,157,28)" stroke-width="80" stroke-linejoin="round" d="M 3419,3198 L 4219,3198"/>
 <path fill="rgb(87,157,28)" stroke="none" d="M 3713,3304 L 3924,3304 3819,3093 3713,3304 Z"/>
 <path fill="none" stroke="rgb(87,157,28)" stroke-linejoin="round" d="M 3713,3304 L 3924,3304 3819,3093 3713,3304 Z"/>
 <text class="TextShape"><tspan class="TextParagraph" font-family="Arial" font-size="353px" font-weight="400"><tspan class="TextPosition" x="4319" y="2105"/><tspan class="TextPosition" x="4319" y="2105"><tspan fill="rgb(0,0,0)" stroke="none">Elem. Ref&apos;d.</tspan></tspan></tspan></text>
 <text class="TextShape"><tspan class="TextParagraph" font-family="Arial" font-size="353px" font-weight="400"><tspan class="TextPosition" x="4319" y="2718"/><tspan class="TextPosition" x="4319" y="2718"><tspan fill="rgb(0,0,0)" stroke="none">Table Updates</tspan></tspan></tspan></text>
 <text class="TextShape"><tspan class="TextParagraph" font-family="Arial" font-size="353px" font-weight="400"><tspan class="TextPosition" x="4319" y="3331"/><tspan class="TextPosition" x="4319" y="3331"><tspan fill="rgb(0,0,0)" stroke="none">Trans. Performed</tspan></tspan></tspan></text>
 <text class="TextShape"><tspan class="TextParagraph" font-family="Arial" font-size="318px" font-weight="400"><tspan class="TextPosition" x="5578" y="7168"/><tspan class="TextPosition" x="5578" y="7168"><tspan fill="rgb(0,0,0)" stroke="none">Number of Processes</tspan></tspan></tspan></text>
 <text class="TextShape" transform="translate(811,6848) rotate(-90) translate(-811,-6848)"><tspan class="TextParagraph" font-family="Arial" font-size="318px" font-weight="400"><tspan class="TextPosition" x="811" y="6848"/><tspan class="TextPosition" x="811" y="6848"><tspan fill="rgb(0,0,0)" stroke="none">Referemnces or Transactions per Second</tspan></tspan></tspan></text>
</svg>