<?xml version="1.0" encoding="UTF-8"?>
<!DOCTYPE svg PUBLIC "-//W3C//DTD SVG 1.1//EN" "http://www.w3.org/Graphics/SVG/1.1/DTD/svg11.dtd">
<svg width="127mm" height="73mm" viewBox="0 0 12700 7300" version="1.1" baseProfile="tiny" xmlns="http://www.w3.org/2000/svg" stroke-width="28.222" stroke-linejoin="round" xml:space="preserve">
 <path fill="none" stroke="rgb(179,179,179)" stroke-linejoin="round" d="M 7530,5590 L 3024,5590 3024,1365 12037,1365 12037,5590 7530,5590 Z"/>
 <path fill="none" stroke="rgb(179,179,179)" stroke-linejoin="round" d="M 12037,5589 L 3024,5589"/>
 <path fill="none" stroke="rgb(179,179,179)" stroke-linejoin="round" d="M 12037,5060 L 3024,5060"/>
 <path fill="none" stroke="rgb(179,179,179)" stroke-linejoin="round" d="M 12037,4532 L 3024,4532"/>
 <path fill="none" stroke="rgb(179,179,179)" stroke-linejoin="round" d="M 12037,4004 L 3024,4004"/>
 <path fill="none" stroke="rgb(179,179,179)" stroke-linejoin="round" d="M 12037,3477 L 3024,3477"/>
 <path fill="none" stroke="rgb(179,179,179)" stroke-linejoin="round" d="M 12037,2948 L 3024,2948"/>
 <path fill="none" stroke="rgb(179,179,179)" stroke-linejoin="round" d="M 12037,2420 L 3024,2420"/>
 <path fill="none" stroke="rgb(179,179,179)" stroke-linejoin="round" d="M 12037,1892 L 3024,1892"/>
 <path fill="none" stroke="rgb(179,179,179)" stroke-linejoin="round" d="M 12037,1364 L 3024,1364"/>
 <path fill="none" stroke="rgb(179,179,179)" stroke-linejoin="round" d="M 3024,5739 L 3024,5589"/>
 <path fill="none" stroke="rgb(179,179,179)" stroke-linejoin="round" d="M 3024,5739 L 3024,5589"/>
 <path fill="none" stroke="rgb(179,179,179)" stroke-linejoin="round" d="M 4311,5739 L 4311,5589"/>
 <path fill="none" stroke="rgb(179,179,179)" stroke-linejoin="round" d="M 4311,5739 L 4311,5589"/>
 <path fill="none" stroke="rgb(179,179,179)" stroke-linejoin="round" d="M 5599,5739 L 5599,5589"/>
 <path fill="none" stroke="rgb(179,179,179)" stroke-linejoin="round" d="M 5599,5739 L 5599,5589"/>
 <path fill="none" stroke="rgb(179,179,179)" stroke-linejoin="round" d="M 6886,5739 L 6886,5589"/>
 <path fill="none" stroke="rgb(179,179,179)" stroke-linejoin="round" d="M 6886,5739 L 6886,5589"/>
 <path fill="none" stroke="rgb(179,179,179)" stroke-linejoin="round" d="M 8173,5739 L 8173,5589"/>
 <path fill="none" stroke="rgb(179,179,179)" stroke-linejoin="round" d="M 8173,5739 L 8173,5589"/>
 <path fill="none" stroke="rgb(179,179,179)" stroke-linejoin="round" d="M 9461,5739 L 9461,5589"/>
 <path fill="none" stroke="rgb(179,179,179)" stroke-linejoin="round" d="M 9461,5739 L 9461,5589"/>
 <path fill="none" stroke="rgb(179,179,179)" stroke-linejoin="round" d="M 10749,5739 L 10749,5589"/>
 <path fill="none" stroke="rgb(179,179,179)" stroke-linejoin="round" d="M 10749,5739 L 10749,5589"/>
 <path fill="none" stroke="rgb(179,179,179)" stroke-linejoin="round" d="M 12037,5739 L 12037,5589"/>
 <path fill="none" stroke="rgb(179,179,179)" stroke-linejoin="round" d="M 12037,5739 L 12037,5589"/>
 <path fill="none" stroke="rgb(179,179,179)" stroke-linejoin="round" d="M 3024,5589 L 12037,5589"/>
 <path fill="none" stroke="rgb(179,179,179)" stroke-linejoin="round" d="M 2874,5589 L 3024,5589"/>
 <path fill="none" stroke="rgb(179,179,179)" stroke-linejoin="round" d="M 2874,5589 L 3024,5589"/>
 <path fill="none" stroke="rgb(179,179,179)" stroke-linejoin="round" d="M 2874,5060 L 3024,5060"/>
 <path fill="none" stroke="rgb(179,179,179)" stroke-linejoin="round" d="M 2874,5060 L 3024,5060"/>
 <path fill="none" stroke="rgb(179,179,179)" stroke-linejoin="round" d="M 2874,4532 L 3024,4532"/>
 <path fill="none" stroke="rgb(179,179,179)" stroke-linejoin="round" d="M 2874,4532 L 3024,4532"/>
 <path fill="none" stroke="rgb(179,179,179)" stroke-linejoin="round" d="M 2874,4004 L 3024,4004"/>
 <path fill="none" stroke="rgb(179,179,179)" stroke-linejoin="round" d="M 2874,4004 L 3024,4004"/>
 <path fill="none" stroke="rgb(179,179,179)" stroke-linejoin="round" d="M 2874,3477 L 3024,3477"/>
 <path fill="none" stroke="rgb(179,179,179)" stroke-linejoin="round" d="M 2874,3477 L 3024,3477"/>
 <path fill="none" stroke="rgb(179,179,179)" stroke-linejoin="round" d="M 2874,2948 L 3024,2948"/>
 <path fill="none" stroke="rgb(179,179,179)" stroke-linejoin="round" d="M 2874,2948 L 3024,2948"/>
 <path fill="none" stroke="rgb(179,179,179)" stroke-linejoin="round" d="M 2874,2420 L 3024,2420"/>
 <path fill="none" stroke="rgb(179,179,179)" stroke-linejoin="round" d="M 2874,2420 L 3024,2420"/>
 <path fill="none" stroke="rgb(179,179,179)" stroke-linejoin="round" d="M 2874,1892 L 3024,1892"/>
 <path fill="none" stroke="rgb(179,179,179)" stroke-linejoin="round" d="M 2874,1892 L 3024,1892"/>
 <path fill="none" stroke="rgb(179,179,179)" stroke-linejoin="round" d="M 2874,1364 L 3024,1364"/>
 <path fill="none" stroke="rgb(179,179,179)" stroke-linejoin="round" d="M 2874,1364 L 3024,1364"/>
 <path fill="none" stroke="rgb(179,179,179)" stroke-linejoin="round" d="M 3024,5589 L 3024,1364"/>
 <path fill="none" stroke="rgb(0,69,134)" stroke-width="80" stroke-linejoin="round" d="M 3024,5303 L 4311,5005 5599,4514 6886,3611 8173,2322 9461,2058 10749,1839 12037,1652"/>
 <path fill="rgb(0,69,134)" stroke="none" d="M 2899,5178 L 2899,5428 3149,5428 3149,5178 2899,5178 Z"/>
 <path fill="none" stroke="rgb(0,69,134)" stroke-linejoin="round" d="M 2899,5178 L 2899,5428 3149,5428 3149,5178 2899,5178 Z"/>
 <path fill="rgb(0,69,134)" stroke="none" d="M 4186,4880 L 4186,5130 4436,5130 4436,4880 4186,4880 Z"/>
 <path fill="none" stroke="rgb(0,69,134)" stroke-linejoin="round" d="M 4186,4880 L 4186,5130 4436,5130 4436,4880 4186,4880 Z"/>
 <path fill="rgb(0,69,134)" stroke="none" d="M 5474,4389 L 5474,4639 5724,4639 5724,4389 5474,4389 Z"/>
 <path fill="none" stroke="rgb(0,69,134)" stroke-linejoin="round" d="M 5474,4389 L 5474,4639 5724,4639 5724,4389 5474,4389 Z"/>
 <path fill="rgb(0,69,134)" stroke="none" d="M 6761,3486 L 6761,3735 7011,3735 7011,3486 6761,3486 Z"/>
 <path fill="none" stroke="rgb(0,69,134)" stroke-linejoin="round" d="M 6761,3486 L 6761,3735 7011,3735 7011,3486 6761,3486 Z"/>
 <path fill="rgb(0,69,134)" stroke="none" d="M 8048,2197 L 8048,2447 8298,2447 8298,2197 8048,2197 Z"/>
 <path fill="none" stroke="rgb(0,69,134)" stroke-linejoin="round" d="M 8048,2197 L 8048,2447 8298,2447 8298,2197 8048,2197 Z"/>
 <path fill="rgb(0,69,134)" stroke="none" d="M 9336,1933 L 9336,2183 9586,2183 9586,1933 9336,1933 Z"/>
 <path fill="none" stroke="rgb(0,69,134)" stroke-linejoin="round" d="M 9336,1933 L 9336,2183 9586,2183 9586,1933 9336,1933 Z"/>
 <path fill="rgb(0,69,134)" stroke="none" d="M 10624,1714 L 10624,1964 10874,1964 10874,1714 10624,1714 Z"/>
 <path fill="none" stroke="rgb(0,69,134)" stroke-linejoin="round" d="M 10624,1714 L 10624,1964 10874,1964 10874,1714 10624,1714 Z"/>
 <path fill="rgb(0,69,134)" stroke="none" d="M 11912,1527 L 11912,1777 12162,1777 12162,1527 11912,1527 Z"/>
 <path fill="none" stroke="rgb(0,69,134)" stroke-linejoin="round" d="M 11912,1527 L 11912,1777 12162,1777 12162,1527 11912,1527 Z"/>
 <text class="TextShape"><tspan class="TextParagraph" font-family="Liberation Sans" font-size="353px" font-weight="400"><tspan class="TextPosition" x="2931" y="6157"/><tspan class="TextPosition" x="2931" y="6157"><tspan fill="rgb(0,0,0)" stroke="none">1</tspan></tspan></tspan></text>
 <text class="TextShape"><tspan class="TextParagraph" font-family="Liberation Sans" font-size="353px" font-weight="400"><tspan class="TextPosition" x="4218" y="6157"/><tspan class="TextPosition" x="4218" y="6157"><tspan fill="rgb(0,0,0)" stroke="none">2</tspan></tspan></tspan></text>
 <text class="TextShape"><tspan class="TextParagraph" font-family="Liberation Sans" font-size="353px" font-weight="400"><tspan class="TextPosition" x="5506" y="6157"/><tspan class="TextPosition" x="5506" y="6157"><tspan fill="rgb(0,0,0)" stroke="none">4</tspan></tspan></tspan></text>
 <text class="TextShape"><tspan class="TextParagraph" font-family="Liberation Sans" font-size="353px" font-weight="400"><tspan class="TextPosition" x="6794" y="6157"/><tspan class="TextPosition" x="6794" y="6157"><tspan fill="rgb(0,0,0)" stroke="none">8</tspan></tspan></tspan></text>
 <text class="TextShape"><tspan class="TextParagraph" font-family="Liberation Sans" font-size="353px" font-weight="400"><tspan class="TextPosition" x="7989" y="6157"/><tspan class="TextPosition" x="7989" y="6157"><tspan fill="rgb(0,0,0)" stroke="none">16</tspan></tspan></tspan></text>
 <text class="TextShape"><tspan class="TextParagraph" font-family="Liberation Sans" font-size="353px" font-weight="400"><tspan class="TextPosition" x="9277" y="6157"/><tspan class="TextPosition" x="9277" y="6157"><tspan fill="rgb(0,0,0)" stroke="none">24</tspan></tspan></tspan></text>
 <text class="TextShape"><tspan class="TextParagraph" font-family="Liberation Sans" font-size="353px" font-weight="400"><tspan class="TextPosition" x="10565" y="6157"/><tspan class="TextPosition" x="10565" y="6157"><tspan fill="rgb(0,0,0)" stroke="none">32</tspan></tspan></tspan></text>
 <text class="TextShape"><tspan class="TextParagraph" font-family="Liberation Sans" font-size="353px" font-weight="400"><tspan class="TextPosition" x="11853" y="6157"/><tspan class="TextPosition" x="11853" y="6157"><tspan fill="rgb(0,0,0)" stroke="none">36</tspan></tspan></tspan></text>
 <text class="TextShape"><tspan class="TextParagraph" font-family="Liberation Sans" font-size="353px" font-weight="400"><tspan class="TextPosition" x="2589" y="5723"/><tspan class="TextPosition" x="2589" y="5723"><tspan fill="rgb(0,0,0)" stroke="none">0</tspan></tspan></tspan></text>
 <text class="TextShape"><tspan class="TextParagraph" font-family="Liberation Sans" font-size="353px" font-weight="400"><tspan class="TextPosition" x="1213" y="5194"/><tspan class="TextPosition" x="1213" y="5194"><tspan fill="rgb(0,0,0)" stroke="none">2,000,000</tspan></tspan></tspan></text>
 <text class="TextShape"><tspan class="TextParagraph" font-family="Liberation Sans" font-size="353px" font-weight="400"><tspan class="TextPosition" x="1213" y="4666"/><tspan class="TextPosition" x="1213" y="4666"><tspan fill="rgb(0,0,0)" stroke="none">4,000,000</tspan></tspan></tspan></text>
 <text class="TextShape"><tspan class="TextParagraph" font-family="Liberation Sans" font-size="353px" font-weight="400"><tspan class="TextPosition" x="1213" y="4138"/><tspan class="TextPosition" x="1213" y="4138"><tspan fill="rgb(0,0,0)" stroke="none">6,000,000</tspan></tspan></tspan></text>
 <text class="TextShape"><tspan class="TextParagraph" font-family="Liberation Sans" font-size="353px" font-weight="400"><tspan class="TextPosition" x="1213" y="3610"/><tspan class="TextPosition" x="1213" y="3610"><tspan fill="rgb(0,0,0)" stroke="none">8,000,000</tspan></tspan></tspan></text>
 <text class="TextShape"><tspan class="TextParagraph" font-family="Liberation Sans" font-size="353px" font-weight="400"><tspan class="TextPosition" x="1028" y="3081"/><tspan class="TextPosition" x="1028" y="3081"><tspan fill="rgb(0,0,0)" stroke="none">10,000,000</tspan></tspan></tspan></text>
 <text class="TextShape"><tspan class="TextParagraph" font-family="Liberation Sans" font-size="353px" font-weight="400"><tspan class="TextPosition" x="1028" y="2553"/><tspan class="TextPosition" x="1028" y="2553"><tspan fill="rgb(0,0,0)" stroke="none">12,000,000</tspan></tspan></tspan></text>
 <text class="TextShape"><tspan class="TextParagraph" font-family="Liberation Sans" font-size="353px" font-weight="400"><tspan class="TextPosition" x="1028" y="2025"/><tspan class="TextPosition" x="1028" y="2025"><tspan fill="rgb(0,0,0)" stroke="none">14,000,000</tspan></tspan></tspan></text>
 <text class="TextShape"><tspan class="TextParagraph" font-family="Liberation Sans" font-size="353px" font-weight="400"><tspan class="TextPosition" x="1028" y="1497"/><tspan class="TextPosition" x="1028" y="1497"><tspan fill="rgb(0,0,0)" stroke="none">16,000,000</tspan></tspan></tspan></text>
 <text class="TextShape"><tspan class="TextParagraph" font-family="Arial" font-size="459px" font-weight="400"><tspan class="TextPosition" x="4809" y="815"/><tspan class="TextPosition" x="4809" y="815"><tspan fill="rgb(0,0,0)" stroke="none">Word Counting</tspan></tspan></tspan></text>
 <text class="TextShape"><tspan class="TextParagraph" font-family="Arial" font-size="318px" font-weight="400"><tspan class="TextPosition" x="5289" y="6717"/><tspan class="TextPosition" x="5289" y="6717"><tspan fill="rgb(0,0,0)" stroke="none">Number of Processes</tspan></tspan></tspan></text>
 <text class="TextShape" transform="translate(811,5004) rotate(-90) translate(-811,-5004)"><tspan class="TextParagraph" font-family="Arial" font-size="318px" font-weight="400"><tspan class="TextPosition" x="811" y="5004"/><tspan class="TextPosition" x="811" y="5004"><tspan fill="rgb(0,0,0)" stroke="none">Words per Second</tspan></tspan></tspan></text>
</svg>